<?xml version="1.0" encoding="utf-8" standalone="no"?>
<!DOCTYPE svg PUBLIC "-//W3C//DTD SVG 1.1//EN"
  "http://www.w3.org/Graphics/SVG/1.1/DTD/svg11.dtd">
<svg xmlns:xlink="http://www.w3.org/1999/xlink" width="396.07704pt" height="116.662939pt" viewBox="0 0 396.07704 116.662939" xmlns="http://www.w3.org/2000/svg" version="1.1">
 <metadata>
  <rdf:RDF xmlns:dc="http://purl.org/dc/elements/1.1/" xmlns:cc="http://creativecommons.org/ns#" xmlns:rdf="http://www.w3.org/1999/02/22-rdf-syntax-ns#">
   <cc:Work>
    <dc:type rdf:resource="http://purl.org/dc/dcmitype/StillImage"/>
    <dc:date>2026-03-30T11:13:32.338489</dc:date>
    <dc:format>image/svg+xml</dc:format>
    <dc:creator>
     <cc:Agent>
      <dc:title>Matplotlib v3.10.8, https://matplotlib.org/</dc:title>
     </cc:Agent>
    </dc:creator>
   </cc:Work>
  </rdf:RDF>
 </metadata>
 <defs>
  <style type="text/css">*{stroke-linejoin: round; stroke-linecap: butt}</style>
 </defs>
 <g id="figure_1">
  <g id="patch_1">
   <path d="M 0 116.662939 
L 396.07704 116.662939 
L 396.07704 0 
L 0 0 
z
" style="fill: #ffffff"/>
  </g>
  <g id="axes_1">
   <g id="patch_2">
    <path d="M 25.358209 91.933637 
L 194.156717 91.933637 
L 194.156717 14.55524 
L 25.358209 14.55524 
z
" style="fill: #ffffff"/>
   </g>
   <g id="patch_3">
    <path d="M 33.030868 91.933637 
L 43.261081 91.933637 
L 43.261081 18.239926 
L 33.030868 18.239926 
z
" clip-path="url(#pf60329bb6d)" style="fill: #2563eb; opacity: 0.8"/>
   </g>
   <g id="patch_4">
    <path d="M 43.261081 91.933637 
L 53.491294 91.933637 
L 53.491294 91.933637 
L 43.261081 91.933637 
z
" clip-path="url(#pf60329bb6d)" style="fill: #2563eb; opacity: 0.8"/>
   </g>
   <g id="patch_5">
    <path d="M 53.491294 91.933637 
L 63.721506 91.933637 
L 63.721506 91.933637 
L 53.491294 91.933637 
z
" clip-path="url(#pf60329bb6d)" style="fill: #2563eb; opacity: 0.8"/>
   </g>
   <g id="patch_6">
    <path d="M 63.721506 91.933637 
L 73.951719 91.933637 
L 73.951719 91.933637 
L 63.721506 91.933637 
z
" clip-path="url(#pf60329bb6d)" style="fill: #2563eb; opacity: 0.8"/>
   </g>
   <g id="patch_7">
    <path d="M 73.951719 91.933637 
L 84.181931 91.933637 
L 84.181931 86.26489 
L 73.951719 86.26489 
z
" clip-path="url(#pf60329bb6d)" style="fill: #2563eb; opacity: 0.8"/>
   </g>
   <g id="patch_8">
    <path d="M 84.181931 91.933637 
L 94.412144 91.933637 
L 94.412144 91.933637 
L 84.181931 91.933637 
z
" clip-path="url(#pf60329bb6d)" style="fill: #2563eb; opacity: 0.8"/>
   </g>
   <g id="patch_9">
    <path d="M 94.412144 91.933637 
L 104.642357 91.933637 
L 104.642357 86.26489 
L 94.412144 86.26489 
z
" clip-path="url(#pf60329bb6d)" style="fill: #2563eb; opacity: 0.8"/>
   </g>
   <g id="patch_10">
    <path d="M 104.642357 91.933637 
L 114.872569 91.933637 
L 114.872569 91.933637 
L 104.642357 91.933637 
z
" clip-path="url(#pf60329bb6d)" style="fill: #2563eb; opacity: 0.8"/>
   </g>
   <g id="patch_11">
    <path d="M 114.872569 91.933637 
L 125.102782 91.933637 
L 125.102782 84.375307 
L 114.872569 84.375307 
z
" clip-path="url(#pf60329bb6d)" style="fill: #2563eb; opacity: 0.8"/>
   </g>
   <g id="patch_12">
    <path d="M 125.102782 91.933637 
L 135.332995 91.933637 
L 135.332995 90.044054 
L 125.102782 90.044054 
z
" clip-path="url(#pf60329bb6d)" style="fill: #2563eb; opacity: 0.8"/>
   </g>
   <g id="patch_13">
    <path d="M 135.332995 91.933637 
L 145.563207 91.933637 
L 145.563207 91.933637 
L 135.332995 91.933637 
z
" clip-path="url(#pf60329bb6d)" style="fill: #2563eb; opacity: 0.8"/>
   </g>
   <g id="patch_14">
    <path d="M 145.563207 91.933637 
L 155.79342 91.933637 
L 155.79342 91.933637 
L 145.563207 91.933637 
z
" clip-path="url(#pf60329bb6d)" style="fill: #2563eb; opacity: 0.8"/>
   </g>
   <g id="patch_15">
    <path d="M 155.79342 91.933637 
L 166.023633 91.933637 
L 166.023633 91.933637 
L 155.79342 91.933637 
z
" clip-path="url(#pf60329bb6d)" style="fill: #2563eb; opacity: 0.8"/>
   </g>
   <g id="patch_16">
    <path d="M 166.023633 91.933637 
L 176.253845 91.933637 
L 176.253845 91.933637 
L 166.023633 91.933637 
z
" clip-path="url(#pf60329bb6d)" style="fill: #2563eb; opacity: 0.8"/>
   </g>
   <g id="patch_17">
    <path d="M 176.253845 91.933637 
L 186.484058 91.933637 
L 186.484058 73.037813 
L 176.253845 73.037813 
z
" clip-path="url(#pf60329bb6d)" style="fill: #2563eb; opacity: 0.8"/>
   </g>
   <g id="matplotlib.axis_1">
    <g id="xtick_1">
     <g id="line2d_1">
      <defs>
       <path id="m8aa830d954" d="M 0 0 
L 0 1.5 
" style="stroke: #000000; stroke-width: 0.5"/>
      </defs>
      <g>
       <use xlink:href="#m8aa830d954" x="33.030868" y="91.933637" style="stroke: #000000; stroke-width: 0.5"/>
      </g>
     </g>
     <g id="text_1">
      <!-- $\mathdefault{0.00}$ -->
      <g transform="translate(26.905868 101.794262) scale(0.07 -0.07)">
       <defs>
        <path id="TimesNewRomanPSMT-30" d="M 231 2094 
Q 231 2819 450 3342 
Q 669 3866 1031 4122 
Q 1313 4325 1613 4325 
Q 2100 4325 2488 3828 
Q 2972 3213 2972 2159 
Q 2972 1422 2759 906 
Q 2547 391 2217 158 
Q 1888 -75 1581 -75 
Q 975 -75 572 641 
Q 231 1244 231 2094 
z
M 844 2016 
Q 844 1141 1059 588 
Q 1238 122 1591 122 
Q 1759 122 1940 273 
Q 2122 425 2216 781 
Q 2359 1319 2359 2297 
Q 2359 3022 2209 3506 
Q 2097 3866 1919 4016 
Q 1791 4119 1609 4119 
Q 1397 4119 1231 3928 
Q 1006 3669 925 3112 
Q 844 2556 844 2016 
z
" transform="scale(0.015625)"/>
        <path id="TimesNewRomanPSMT-2e" d="M 800 606 
Q 947 606 1047 504 
Q 1147 403 1147 259 
Q 1147 116 1045 14 
Q 944 -88 800 -88 
Q 656 -88 554 14 
Q 453 116 453 259 
Q 453 406 554 506 
Q 656 606 800 606 
z
" transform="scale(0.015625)"/>
       </defs>
       <use xlink:href="#TimesNewRomanPSMT-30" transform="translate(0 0.421875)"/>
       <use xlink:href="#TimesNewRomanPSMT-2e" transform="translate(50 0.421875)"/>
       <use xlink:href="#TimesNewRomanPSMT-30" transform="translate(75 0.421875)"/>
       <use xlink:href="#TimesNewRomanPSMT-30" transform="translate(125 0.421875)"/>
      </g>
     </g>
    </g>
    <g id="xtick_2">
     <g id="line2d_2">
      <g>
       <use xlink:href="#m8aa830d954" x="56.873813" y="91.933637" style="stroke: #000000; stroke-width: 0.5"/>
      </g>
     </g>
     <g id="text_2">
      <!-- $\mathdefault{0.25}$ -->
      <g transform="translate(50.748813 101.794262) scale(0.07 -0.07)">
       <defs>
        <path id="TimesNewRomanPSMT-32" d="M 2934 816 
L 2638 0 
L 138 0 
L 138 116 
Q 1241 1122 1691 1759 
Q 2141 2397 2141 2925 
Q 2141 3328 1894 3587 
Q 1647 3847 1303 3847 
Q 991 3847 742 3664 
Q 494 3481 375 3128 
L 259 3128 
Q 338 3706 661 4015 
Q 984 4325 1469 4325 
Q 1984 4325 2329 3994 
Q 2675 3663 2675 3213 
Q 2675 2891 2525 2569 
Q 2294 2063 1775 1497 
Q 997 647 803 472 
L 1909 472 
Q 2247 472 2383 497 
Q 2519 522 2628 598 
Q 2738 675 2819 816 
L 2934 816 
z
" transform="scale(0.015625)"/>
        <path id="TimesNewRomanPSMT-35" d="M 2778 4238 
L 2534 3706 
L 1259 3706 
L 981 3138 
Q 1809 3016 2294 2522 
Q 2709 2097 2709 1522 
Q 2709 1188 2573 903 
Q 2438 619 2231 419 
Q 2025 219 1772 97 
Q 1413 -75 1034 -75 
Q 653 -75 479 54 
Q 306 184 306 341 
Q 306 428 378 495 
Q 450 563 559 563 
Q 641 563 702 538 
Q 763 513 909 409 
Q 1144 247 1384 247 
Q 1750 247 2026 523 
Q 2303 800 2303 1197 
Q 2303 1581 2056 1914 
Q 1809 2247 1375 2428 
Q 1034 2569 447 2591 
L 1259 4238 
L 2778 4238 
z
" transform="scale(0.015625)"/>
       </defs>
       <use xlink:href="#TimesNewRomanPSMT-30" transform="translate(0 0.421875)"/>
       <use xlink:href="#TimesNewRomanPSMT-2e" transform="translate(50 0.421875)"/>
       <use xlink:href="#TimesNewRomanPSMT-32" transform="translate(75 0.421875)"/>
       <use xlink:href="#TimesNewRomanPSMT-35" transform="translate(125 0.421875)"/>
      </g>
     </g>
    </g>
    <g id="xtick_3">
     <g id="line2d_3">
      <g>
       <use xlink:href="#m8aa830d954" x="80.716757" y="91.933637" style="stroke: #000000; stroke-width: 0.5"/>
      </g>
     </g>
     <g id="text_3">
      <!-- $\mathdefault{0.50}$ -->
      <g transform="translate(74.591757 101.794262) scale(0.07 -0.07)">
       <use xlink:href="#TimesNewRomanPSMT-30" transform="translate(0 0.421875)"/>
       <use xlink:href="#TimesNewRomanPSMT-2e" transform="translate(50 0.421875)"/>
       <use xlink:href="#TimesNewRomanPSMT-35" transform="translate(75 0.421875)"/>
       <use xlink:href="#TimesNewRomanPSMT-30" transform="translate(125 0.421875)"/>
      </g>
     </g>
    </g>
    <g id="xtick_4">
     <g id="line2d_4">
      <g>
       <use xlink:href="#m8aa830d954" x="104.559701" y="91.933637" style="stroke: #000000; stroke-width: 0.5"/>
      </g>
     </g>
     <g id="text_4">
      <!-- $\mathdefault{0.75}$ -->
      <g transform="translate(98.434701 101.794262) scale(0.07 -0.07)">
       <defs>
        <path id="TimesNewRomanPSMT-37" d="M 644 4238 
L 2916 4238 
L 2916 4119 
L 1503 -88 
L 1153 -88 
L 2419 3728 
L 1253 3728 
Q 900 3728 750 3644 
Q 488 3500 328 3200 
L 238 3234 
L 644 4238 
z
" transform="scale(0.015625)"/>
       </defs>
       <use xlink:href="#TimesNewRomanPSMT-30" transform="translate(0 0.421875)"/>
       <use xlink:href="#TimesNewRomanPSMT-2e" transform="translate(50 0.421875)"/>
       <use xlink:href="#TimesNewRomanPSMT-37" transform="translate(75 0.421875)"/>
       <use xlink:href="#TimesNewRomanPSMT-35" transform="translate(125 0.421875)"/>
      </g>
     </g>
    </g>
    <g id="xtick_5">
     <g id="line2d_5">
      <g>
       <use xlink:href="#m8aa830d954" x="128.402646" y="91.933637" style="stroke: #000000; stroke-width: 0.5"/>
      </g>
     </g>
     <g id="text_5">
      <!-- $\mathdefault{1.00}$ -->
      <g transform="translate(122.277646 101.794262) scale(0.07 -0.07)">
       <defs>
        <path id="TimesNewRomanPSMT-31" d="M 750 3822 
L 1781 4325 
L 1884 4325 
L 1884 747 
Q 1884 391 1914 303 
Q 1944 216 2037 169 
Q 2131 122 2419 116 
L 2419 0 
L 825 0 
L 825 116 
Q 1125 122 1212 167 
Q 1300 213 1334 289 
Q 1369 366 1369 747 
L 1369 3034 
Q 1369 3497 1338 3628 
Q 1316 3728 1258 3775 
Q 1200 3822 1119 3822 
Q 1003 3822 797 3725 
L 750 3822 
z
" transform="scale(0.015625)"/>
       </defs>
       <use xlink:href="#TimesNewRomanPSMT-31" transform="translate(0 0.421875)"/>
       <use xlink:href="#TimesNewRomanPSMT-2e" transform="translate(50 0.421875)"/>
       <use xlink:href="#TimesNewRomanPSMT-30" transform="translate(75 0.421875)"/>
       <use xlink:href="#TimesNewRomanPSMT-30" transform="translate(125 0.421875)"/>
      </g>
     </g>
    </g>
    <g id="xtick_6">
     <g id="line2d_6">
      <g>
       <use xlink:href="#m8aa830d954" x="152.24559" y="91.933637" style="stroke: #000000; stroke-width: 0.5"/>
      </g>
     </g>
     <g id="text_6">
      <!-- $\mathdefault{1.25}$ -->
      <g transform="translate(146.12059 101.794262) scale(0.07 -0.07)">
       <use xlink:href="#TimesNewRomanPSMT-31" transform="translate(0 0.421875)"/>
       <use xlink:href="#TimesNewRomanPSMT-2e" transform="translate(50 0.421875)"/>
       <use xlink:href="#TimesNewRomanPSMT-32" transform="translate(75 0.421875)"/>
       <use xlink:href="#TimesNewRomanPSMT-35" transform="translate(125 0.421875)"/>
      </g>
     </g>
    </g>
    <g id="xtick_7">
     <g id="line2d_7">
      <g>
       <use xlink:href="#m8aa830d954" x="176.088534" y="91.933637" style="stroke: #000000; stroke-width: 0.5"/>
      </g>
     </g>
     <g id="text_7">
      <!-- $\mathdefault{1.50}$ -->
      <g transform="translate(169.963534 101.794262) scale(0.07 -0.07)">
       <use xlink:href="#TimesNewRomanPSMT-31" transform="translate(0 0.421875)"/>
       <use xlink:href="#TimesNewRomanPSMT-2e" transform="translate(50 0.421875)"/>
       <use xlink:href="#TimesNewRomanPSMT-35" transform="translate(75 0.421875)"/>
       <use xlink:href="#TimesNewRomanPSMT-30" transform="translate(125 0.421875)"/>
      </g>
     </g>
    </g>
    <g id="text_8">
     <!-- Semantic Entropy (H) -->
     <g transform="translate(78.849182 112.15223) scale(0.07 -0.07)">
      <defs>
       <path id="TimesNewRomanPSMT-53" d="M 2934 4334 
L 2934 2869 
L 2819 2869 
Q 2763 3291 2617 3541 
Q 2472 3791 2203 3937 
Q 1934 4084 1647 4084 
Q 1322 4084 1109 3886 
Q 897 3688 897 3434 
Q 897 3241 1031 3081 
Q 1225 2847 1953 2456 
Q 2547 2138 2764 1967 
Q 2981 1797 3098 1565 
Q 3216 1334 3216 1081 
Q 3216 600 2842 251 
Q 2469 -97 1881 -97 
Q 1697 -97 1534 -69 
Q 1438 -53 1133 45 
Q 828 144 747 144 
Q 669 144 623 97 
Q 578 50 556 -97 
L 441 -97 
L 441 1356 
L 556 1356 
Q 638 900 775 673 
Q 913 447 1195 297 
Q 1478 147 1816 147 
Q 2206 147 2432 353 
Q 2659 559 2659 841 
Q 2659 997 2573 1156 
Q 2488 1316 2306 1453 
Q 2184 1547 1640 1851 
Q 1097 2156 867 2337 
Q 638 2519 519 2737 
Q 400 2956 400 3219 
Q 400 3675 750 4004 
Q 1100 4334 1641 4334 
Q 1978 4334 2356 4169 
Q 2531 4091 2603 4091 
Q 2684 4091 2736 4139 
Q 2788 4188 2819 4334 
L 2934 4334 
z
" transform="scale(0.015625)"/>
       <path id="TimesNewRomanPSMT-65" d="M 681 1784 
Q 678 1147 991 784 
Q 1303 422 1725 422 
Q 2006 422 2214 576 
Q 2422 731 2563 1106 
L 2659 1044 
Q 2594 616 2278 264 
Q 1963 -88 1488 -88 
Q 972 -88 605 314 
Q 238 716 238 1394 
Q 238 2128 614 2539 
Q 991 2950 1559 2950 
Q 2041 2950 2350 2633 
Q 2659 2316 2659 1784 
L 681 1784 
z
M 681 1966 
L 2006 1966 
Q 1991 2241 1941 2353 
Q 1863 2528 1708 2628 
Q 1553 2728 1384 2728 
Q 1125 2728 920 2526 
Q 716 2325 681 1966 
z
" transform="scale(0.015625)"/>
       <path id="TimesNewRomanPSMT-6d" d="M 1050 2338 
Q 1363 2650 1419 2697 
Q 1559 2816 1721 2881 
Q 1884 2947 2044 2947 
Q 2313 2947 2506 2790 
Q 2700 2634 2766 2338 
Q 3088 2713 3309 2830 
Q 3531 2947 3766 2947 
Q 3994 2947 4170 2830 
Q 4347 2713 4450 2447 
Q 4519 2266 4519 1878 
L 4519 647 
Q 4519 378 4559 278 
Q 4591 209 4675 161 
Q 4759 113 4950 113 
L 4950 0 
L 3538 0 
L 3538 113 
L 3597 113 
Q 3781 113 3884 184 
Q 3956 234 3988 344 
Q 4000 397 4000 647 
L 4000 1878 
Q 4000 2228 3916 2372 
Q 3794 2572 3525 2572 
Q 3359 2572 3192 2489 
Q 3025 2406 2788 2181 
L 2781 2147 
L 2788 2013 
L 2788 647 
Q 2788 353 2820 281 
Q 2853 209 2943 161 
Q 3034 113 3253 113 
L 3253 0 
L 1806 0 
L 1806 113 
Q 2044 113 2133 169 
Q 2222 225 2256 338 
Q 2272 391 2272 647 
L 2272 1878 
Q 2272 2228 2169 2381 
Q 2031 2581 1784 2581 
Q 1616 2581 1450 2491 
Q 1191 2353 1050 2181 
L 1050 647 
Q 1050 366 1089 281 
Q 1128 197 1204 155 
Q 1281 113 1516 113 
L 1516 0 
L 100 0 
L 100 113 
Q 297 113 375 155 
Q 453 197 493 289 
Q 534 381 534 647 
L 534 1741 
Q 534 2213 506 2350 
Q 484 2453 437 2492 
Q 391 2531 309 2531 
Q 222 2531 100 2484 
L 53 2597 
L 916 2947 
L 1050 2947 
L 1050 2338 
z
" transform="scale(0.015625)"/>
       <path id="TimesNewRomanPSMT-61" d="M 1822 413 
Q 1381 72 1269 19 
Q 1100 -59 909 -59 
Q 613 -59 420 144 
Q 228 347 228 678 
Q 228 888 322 1041 
Q 450 1253 767 1440 
Q 1084 1628 1822 1897 
L 1822 2009 
Q 1822 2438 1686 2597 
Q 1550 2756 1291 2756 
Q 1094 2756 978 2650 
Q 859 2544 859 2406 
L 866 2225 
Q 866 2081 792 2003 
Q 719 1925 600 1925 
Q 484 1925 411 2006 
Q 338 2088 338 2228 
Q 338 2497 613 2722 
Q 888 2947 1384 2947 
Q 1766 2947 2009 2819 
Q 2194 2722 2281 2516 
Q 2338 2381 2338 1966 
L 2338 994 
Q 2338 584 2353 492 
Q 2369 400 2405 369 
Q 2441 338 2488 338 
Q 2538 338 2575 359 
Q 2641 400 2828 588 
L 2828 413 
Q 2478 -56 2159 -56 
Q 2006 -56 1915 50 
Q 1825 156 1822 413 
z
M 1822 616 
L 1822 1706 
Q 1350 1519 1213 1441 
Q 966 1303 859 1153 
Q 753 1003 753 825 
Q 753 600 887 451 
Q 1022 303 1197 303 
Q 1434 303 1822 616 
z
" transform="scale(0.015625)"/>
       <path id="TimesNewRomanPSMT-6e" d="M 1034 2341 
Q 1538 2947 1994 2947 
Q 2228 2947 2397 2830 
Q 2566 2713 2666 2444 
Q 2734 2256 2734 1869 
L 2734 647 
Q 2734 375 2778 278 
Q 2813 200 2889 156 
Q 2966 113 3172 113 
L 3172 0 
L 1756 0 
L 1756 113 
L 1816 113 
Q 2016 113 2095 173 
Q 2175 234 2206 353 
Q 2219 400 2219 647 
L 2219 1819 
Q 2219 2209 2117 2386 
Q 2016 2563 1775 2563 
Q 1403 2563 1034 2156 
L 1034 647 
Q 1034 356 1069 288 
Q 1113 197 1189 155 
Q 1266 113 1500 113 
L 1500 0 
L 84 0 
L 84 113 
L 147 113 
Q 366 113 442 223 
Q 519 334 519 647 
L 519 1709 
Q 519 2225 495 2337 
Q 472 2450 423 2490 
Q 375 2531 294 2531 
Q 206 2531 84 2484 
L 38 2597 
L 900 2947 
L 1034 2947 
L 1034 2341 
z
" transform="scale(0.015625)"/>
       <path id="TimesNewRomanPSMT-74" d="M 1031 3803 
L 1031 2863 
L 1700 2863 
L 1700 2644 
L 1031 2644 
L 1031 788 
Q 1031 509 1111 412 
Q 1191 316 1316 316 
Q 1419 316 1516 380 
Q 1613 444 1666 569 
L 1788 569 
Q 1678 263 1478 108 
Q 1278 -47 1066 -47 
Q 922 -47 784 33 
Q 647 113 581 261 
Q 516 409 516 719 
L 516 2644 
L 63 2644 
L 63 2747 
Q 234 2816 414 2980 
Q 594 3144 734 3369 
Q 806 3488 934 3803 
L 1031 3803 
z
" transform="scale(0.015625)"/>
       <path id="TimesNewRomanPSMT-69" d="M 928 4444 
Q 1059 4444 1151 4351 
Q 1244 4259 1244 4128 
Q 1244 3997 1151 3903 
Q 1059 3809 928 3809 
Q 797 3809 703 3903 
Q 609 3997 609 4128 
Q 609 4259 701 4351 
Q 794 4444 928 4444 
z
M 1188 2947 
L 1188 647 
Q 1188 378 1227 289 
Q 1266 200 1342 156 
Q 1419 113 1622 113 
L 1622 0 
L 231 0 
L 231 113 
Q 441 113 512 153 
Q 584 194 626 287 
Q 669 381 669 647 
L 669 1750 
Q 669 2216 641 2353 
Q 619 2453 572 2492 
Q 525 2531 444 2531 
Q 356 2531 231 2484 
L 188 2597 
L 1050 2947 
L 1188 2947 
z
" transform="scale(0.015625)"/>
       <path id="TimesNewRomanPSMT-63" d="M 2631 1088 
Q 2516 522 2178 217 
Q 1841 -88 1431 -88 
Q 944 -88 581 321 
Q 219 731 219 1428 
Q 219 2103 620 2525 
Q 1022 2947 1584 2947 
Q 2006 2947 2278 2723 
Q 2550 2500 2550 2259 
Q 2550 2141 2473 2067 
Q 2397 1994 2259 1994 
Q 2075 1994 1981 2113 
Q 1928 2178 1911 2362 
Q 1894 2547 1784 2644 
Q 1675 2738 1481 2738 
Q 1169 2738 978 2506 
Q 725 2200 725 1697 
Q 725 1184 976 792 
Q 1228 400 1656 400 
Q 1963 400 2206 609 
Q 2378 753 2541 1131 
L 2631 1088 
z
" transform="scale(0.015625)"/>
       <path id="TimesNewRomanPSMT-20" transform="scale(0.015625)"/>
       <path id="TimesNewRomanPSMT-45" d="M 1338 4006 
L 1338 2331 
L 2269 2331 
Q 2631 2331 2753 2441 
Q 2916 2584 2934 2947 
L 3050 2947 
L 3050 1472 
L 2934 1472 
Q 2891 1781 2847 1869 
Q 2791 1978 2662 2040 
Q 2534 2103 2269 2103 
L 1338 2103 
L 1338 706 
Q 1338 425 1363 364 
Q 1388 303 1450 267 
Q 1513 231 1688 231 
L 2406 231 
Q 2766 231 2928 281 
Q 3091 331 3241 478 
Q 3434 672 3638 1063 
L 3763 1063 
L 3397 0 
L 131 0 
L 131 116 
L 281 116 
Q 431 116 566 188 
Q 666 238 702 338 
Q 738 438 738 747 
L 738 3500 
Q 738 3903 656 3997 
Q 544 4122 281 4122 
L 131 4122 
L 131 4238 
L 3397 4238 
L 3444 3309 
L 3322 3309 
Q 3256 3644 3176 3769 
Q 3097 3894 2941 3959 
Q 2816 4006 2500 4006 
L 1338 4006 
z
" transform="scale(0.015625)"/>
       <path id="TimesNewRomanPSMT-72" d="M 1038 2947 
L 1038 2303 
Q 1397 2947 1775 2947 
Q 1947 2947 2059 2842 
Q 2172 2738 2172 2600 
Q 2172 2478 2090 2393 
Q 2009 2309 1897 2309 
Q 1788 2309 1652 2417 
Q 1516 2525 1450 2525 
Q 1394 2525 1328 2463 
Q 1188 2334 1038 2041 
L 1038 669 
Q 1038 431 1097 309 
Q 1138 225 1241 169 
Q 1344 113 1538 113 
L 1538 0 
L 72 0 
L 72 113 
Q 291 113 397 181 
Q 475 231 506 341 
Q 522 394 522 644 
L 522 1753 
Q 522 2253 501 2348 
Q 481 2444 426 2487 
Q 372 2531 291 2531 
Q 194 2531 72 2484 
L 41 2597 
L 906 2947 
L 1038 2947 
z
" transform="scale(0.015625)"/>
       <path id="TimesNewRomanPSMT-6f" d="M 1600 2947 
Q 2250 2947 2644 2453 
Q 2978 2031 2978 1484 
Q 2978 1100 2793 706 
Q 2609 313 2286 112 
Q 1963 -88 1566 -88 
Q 919 -88 538 428 
Q 216 863 216 1403 
Q 216 1797 411 2186 
Q 606 2575 925 2761 
Q 1244 2947 1600 2947 
z
M 1503 2744 
Q 1338 2744 1170 2645 
Q 1003 2547 900 2300 
Q 797 2053 797 1666 
Q 797 1041 1045 587 
Q 1294 134 1700 134 
Q 2003 134 2200 384 
Q 2397 634 2397 1244 
Q 2397 2006 2069 2444 
Q 1847 2744 1503 2744 
z
" transform="scale(0.015625)"/>
       <path id="TimesNewRomanPSMT-70" d="M -6 2578 
L 875 2934 
L 994 2934 
L 994 2266 
Q 1216 2644 1439 2795 
Q 1663 2947 1909 2947 
Q 2341 2947 2628 2609 
Q 2981 2197 2981 1534 
Q 2981 794 2556 309 
Q 2206 -88 1675 -88 
Q 1444 -88 1275 -22 
Q 1150 25 994 166 
L 994 -706 
Q 994 -1000 1030 -1079 
Q 1066 -1159 1155 -1206 
Q 1244 -1253 1478 -1253 
L 1478 -1369 
L -22 -1369 
L -22 -1253 
L 56 -1253 
Q 228 -1256 350 -1188 
Q 409 -1153 442 -1076 
Q 475 -1000 475 -688 
L 475 2019 
Q 475 2297 450 2372 
Q 425 2447 370 2484 
Q 316 2522 222 2522 
Q 147 2522 31 2478 
L -6 2578 
z
M 994 2081 
L 994 1013 
Q 994 666 1022 556 
Q 1066 375 1236 237 
Q 1406 100 1666 100 
Q 1978 100 2172 344 
Q 2425 663 2425 1241 
Q 2425 1897 2138 2250 
Q 1938 2494 1663 2494 
Q 1513 2494 1366 2419 
Q 1253 2363 994 2081 
z
" transform="scale(0.015625)"/>
       <path id="TimesNewRomanPSMT-79" d="M 38 2863 
L 1372 2863 
L 1372 2747 
L 1306 2747 
Q 1166 2747 1095 2686 
Q 1025 2625 1025 2534 
Q 1025 2413 1128 2197 
L 1825 753 
L 2466 2334 
Q 2519 2463 2519 2588 
Q 2519 2644 2497 2672 
Q 2472 2706 2419 2726 
Q 2366 2747 2231 2747 
L 2231 2863 
L 3163 2863 
L 3163 2747 
Q 3047 2734 2984 2696 
Q 2922 2659 2847 2556 
Q 2819 2513 2741 2316 
L 1575 -541 
Q 1406 -956 1132 -1168 
Q 859 -1381 606 -1381 
Q 422 -1381 303 -1275 
Q 184 -1169 184 -1031 
Q 184 -900 270 -820 
Q 356 -741 506 -741 
Q 609 -741 788 -809 
Q 913 -856 944 -856 
Q 1038 -856 1148 -759 
Q 1259 -663 1372 -384 
L 1575 113 
L 547 2272 
Q 500 2369 397 2513 
Q 319 2622 269 2659 
Q 197 2709 38 2747 
L 38 2863 
z
" transform="scale(0.015625)"/>
       <path id="TimesNewRomanPSMT-28" d="M 1988 -1253 
L 1988 -1369 
Q 1516 -1131 1200 -813 
Q 750 -359 506 256 
Q 263 872 263 1534 
Q 263 2503 741 3301 
Q 1219 4100 1988 4444 
L 1988 4313 
Q 1603 4100 1356 3731 
Q 1109 3363 987 2797 
Q 866 2231 866 1616 
Q 866 947 969 400 
Q 1050 -31 1165 -292 
Q 1281 -553 1476 -793 
Q 1672 -1034 1988 -1253 
z
" transform="scale(0.015625)"/>
       <path id="TimesNewRomanPSMT-48" d="M 1316 2272 
L 3284 2272 
L 3284 3484 
Q 3284 3809 3244 3913 
Q 3213 3991 3113 4047 
Q 2978 4122 2828 4122 
L 2678 4122 
L 2678 4238 
L 4491 4238 
L 4491 4122 
L 4341 4122 
Q 4191 4122 4056 4050 
Q 3956 4000 3920 3898 
Q 3884 3797 3884 3484 
L 3884 750 
Q 3884 428 3925 325 
Q 3956 247 4053 191 
Q 4191 116 4341 116 
L 4491 116 
L 4491 0 
L 2678 0 
L 2678 116 
L 2828 116 
Q 3088 116 3206 269 
Q 3284 369 3284 750 
L 3284 2041 
L 1316 2041 
L 1316 750 
Q 1316 428 1356 325 
Q 1388 247 1488 191 
Q 1622 116 1772 116 
L 1925 116 
L 1925 0 
L 109 0 
L 109 116 
L 259 116 
Q 522 116 641 269 
Q 716 369 716 750 
L 716 3484 
Q 716 3809 675 3913 
Q 644 3991 547 4047 
Q 409 4122 259 4122 
L 109 4122 
L 109 4238 
L 1925 4238 
L 1925 4122 
L 1772 4122 
Q 1622 4122 1488 4050 
Q 1391 4000 1353 3898 
Q 1316 3797 1316 3484 
L 1316 2272 
z
" transform="scale(0.015625)"/>
       <path id="TimesNewRomanPSMT-29" d="M 144 4313 
L 144 4444 
Q 619 4209 934 3891 
Q 1381 3434 1625 2820 
Q 1869 2206 1869 1541 
Q 1869 572 1392 -226 
Q 916 -1025 144 -1369 
L 144 -1253 
Q 528 -1038 776 -670 
Q 1025 -303 1145 264 
Q 1266 831 1266 1447 
Q 1266 2113 1163 2663 
Q 1084 3094 967 3353 
Q 850 3613 656 3853 
Q 463 4094 144 4313 
z
" transform="scale(0.015625)"/>
      </defs>
      <use xlink:href="#TimesNewRomanPSMT-53"/>
      <use xlink:href="#TimesNewRomanPSMT-65" transform="translate(55.615234 0)"/>
      <use xlink:href="#TimesNewRomanPSMT-6d" transform="translate(100 0)"/>
      <use xlink:href="#TimesNewRomanPSMT-61" transform="translate(177.783203 0)"/>
      <use xlink:href="#TimesNewRomanPSMT-6e" transform="translate(222.167969 0)"/>
      <use xlink:href="#TimesNewRomanPSMT-74" transform="translate(272.167969 0)"/>
      <use xlink:href="#TimesNewRomanPSMT-69" transform="translate(299.951172 0)"/>
      <use xlink:href="#TimesNewRomanPSMT-63" transform="translate(327.734375 0)"/>
      <use xlink:href="#TimesNewRomanPSMT-20" transform="translate(372.119141 0)"/>
      <use xlink:href="#TimesNewRomanPSMT-45" transform="translate(397.119141 0)"/>
      <use xlink:href="#TimesNewRomanPSMT-6e" transform="translate(458.203125 0)"/>
      <use xlink:href="#TimesNewRomanPSMT-74" transform="translate(508.203125 0)"/>
      <use xlink:href="#TimesNewRomanPSMT-72" transform="translate(535.986328 0)"/>
      <use xlink:href="#TimesNewRomanPSMT-6f" transform="translate(569.287109 0)"/>
      <use xlink:href="#TimesNewRomanPSMT-70" transform="translate(619.287109 0)"/>
      <use xlink:href="#TimesNewRomanPSMT-79" transform="translate(669.287109 0)"/>
      <use xlink:href="#TimesNewRomanPSMT-20" transform="translate(719.287109 0)"/>
      <use xlink:href="#TimesNewRomanPSMT-28" transform="translate(744.287109 0)"/>
      <use xlink:href="#TimesNewRomanPSMT-48" transform="translate(777.587891 0)"/>
      <use xlink:href="#TimesNewRomanPSMT-29" transform="translate(849.804688 0)"/>
     </g>
    </g>
   </g>
   <g id="matplotlib.axis_2">
    <g id="ytick_1">
     <g id="line2d_8">
      <defs>
       <path id="mb9fc9875b2" d="M 0 0 
L -1.5 0 
" style="stroke: #000000; stroke-width: 0.5"/>
      </defs>
      <g>
       <use xlink:href="#mb9fc9875b2" x="25.358209" y="91.933637" style="stroke: #000000; stroke-width: 0.5"/>
      </g>
     </g>
     <g id="text_9">
      <!-- $\mathdefault{0}$ -->
      <g transform="translate(16.858209 94.363949) scale(0.07 -0.07)">
       <use xlink:href="#TimesNewRomanPSMT-30" transform="translate(0 0.421875)"/>
      </g>
     </g>
    </g>
    <g id="ytick_2">
     <g id="line2d_9">
      <g>
       <use xlink:href="#mb9fc9875b2" x="25.358209" y="73.037813" style="stroke: #000000; stroke-width: 0.5"/>
      </g>
     </g>
     <g id="text_10">
      <!-- $\mathdefault{10}$ -->
      <g transform="translate(13.358209 75.468126) scale(0.07 -0.07)">
       <use xlink:href="#TimesNewRomanPSMT-31" transform="translate(0 0.421875)"/>
       <use xlink:href="#TimesNewRomanPSMT-30" transform="translate(50 0.421875)"/>
      </g>
     </g>
    </g>
    <g id="ytick_3">
     <g id="line2d_10">
      <g>
       <use xlink:href="#mb9fc9875b2" x="25.358209" y="54.14199" style="stroke: #000000; stroke-width: 0.5"/>
      </g>
     </g>
     <g id="text_11">
      <!-- $\mathdefault{20}$ -->
      <g transform="translate(13.358209 56.572302) scale(0.07 -0.07)">
       <use xlink:href="#TimesNewRomanPSMT-32" transform="translate(0 0.421875)"/>
       <use xlink:href="#TimesNewRomanPSMT-30" transform="translate(50 0.421875)"/>
      </g>
     </g>
    </g>
    <g id="ytick_4">
     <g id="line2d_11">
      <g>
       <use xlink:href="#mb9fc9875b2" x="25.358209" y="35.246167" style="stroke: #000000; stroke-width: 0.5"/>
      </g>
     </g>
     <g id="text_12">
      <!-- $\mathdefault{30}$ -->
      <g transform="translate(13.358209 37.676479) scale(0.07 -0.07)">
       <defs>
        <path id="TimesNewRomanPSMT-33" d="M 325 3431 
Q 506 3859 782 4092 
Q 1059 4325 1472 4325 
Q 1981 4325 2253 3994 
Q 2459 3747 2459 3466 
Q 2459 3003 1878 2509 
Q 2269 2356 2469 2072 
Q 2669 1788 2669 1403 
Q 2669 853 2319 450 
Q 1863 -75 997 -75 
Q 569 -75 414 31 
Q 259 138 259 259 
Q 259 350 332 419 
Q 406 488 509 488 
Q 588 488 669 463 
Q 722 447 909 348 
Q 1097 250 1169 231 
Q 1284 197 1416 197 
Q 1734 197 1970 444 
Q 2206 691 2206 1028 
Q 2206 1275 2097 1509 
Q 2016 1684 1919 1775 
Q 1784 1900 1550 2001 
Q 1316 2103 1072 2103 
L 972 2103 
L 972 2197 
Q 1219 2228 1467 2375 
Q 1716 2522 1828 2728 
Q 1941 2934 1941 3181 
Q 1941 3503 1739 3701 
Q 1538 3900 1238 3900 
Q 753 3900 428 3381 
L 325 3431 
z
" transform="scale(0.015625)"/>
       </defs>
       <use xlink:href="#TimesNewRomanPSMT-33" transform="translate(0 0.421875)"/>
       <use xlink:href="#TimesNewRomanPSMT-30" transform="translate(50 0.421875)"/>
      </g>
     </g>
    </g>
    <g id="ytick_5">
     <g id="line2d_12">
      <g>
       <use xlink:href="#mb9fc9875b2" x="25.358209" y="16.350343" style="stroke: #000000; stroke-width: 0.5"/>
      </g>
     </g>
     <g id="text_13">
      <!-- $\mathdefault{40}$ -->
      <g transform="translate(13.358209 18.780656) scale(0.07 -0.07)">
       <defs>
        <path id="TimesNewRomanPSMT-34" d="M 2978 1563 
L 2978 1119 
L 2409 1119 
L 2409 0 
L 1894 0 
L 1894 1119 
L 100 1119 
L 100 1519 
L 2066 4325 
L 2409 4325 
L 2409 1563 
L 2978 1563 
z
M 1894 1563 
L 1894 3666 
L 406 1563 
L 1894 1563 
z
" transform="scale(0.015625)"/>
       </defs>
       <use xlink:href="#TimesNewRomanPSMT-34" transform="translate(0 0.421875)"/>
       <use xlink:href="#TimesNewRomanPSMT-30" transform="translate(50 0.421875)"/>
      </g>
     </g>
    </g>
    <g id="text_14">
     <!-- Count -->
     <g transform="translate(7.860865 61.801391) rotate(-90) scale(0.07 -0.07)">
      <defs>
       <path id="TimesNewRomanPSMT-43" d="M 3853 4334 
L 3950 2894 
L 3853 2894 
Q 3659 3541 3300 3825 
Q 2941 4109 2438 4109 
Q 2016 4109 1675 3895 
Q 1334 3681 1139 3212 
Q 944 2744 944 2047 
Q 944 1472 1128 1050 
Q 1313 628 1683 403 
Q 2053 178 2528 178 
Q 2941 178 3256 354 
Q 3572 531 3950 1056 
L 4047 994 
Q 3728 428 3303 165 
Q 2878 -97 2294 -97 
Q 1241 -97 663 684 
Q 231 1266 231 2053 
Q 231 2688 515 3219 
Q 800 3750 1298 4042 
Q 1797 4334 2388 4334 
Q 2847 4334 3294 4109 
Q 3425 4041 3481 4041 
Q 3566 4041 3628 4100 
Q 3709 4184 3744 4334 
L 3853 4334 
z
" transform="scale(0.015625)"/>
       <path id="TimesNewRomanPSMT-75" d="M 2709 2863 
L 2709 1128 
Q 2709 631 2732 520 
Q 2756 409 2807 365 
Q 2859 322 2928 322 
Q 3025 322 3147 375 
L 3191 266 
L 2334 -88 
L 2194 -88 
L 2194 519 
Q 1825 119 1631 15 
Q 1438 -88 1222 -88 
Q 981 -88 804 51 
Q 628 191 559 409 
Q 491 628 491 1028 
L 491 2306 
Q 491 2509 447 2587 
Q 403 2666 317 2708 
Q 231 2750 6 2747 
L 6 2863 
L 1009 2863 
L 1009 947 
Q 1009 547 1148 422 
Q 1288 297 1484 297 
Q 1619 297 1789 381 
Q 1959 466 2194 703 
L 2194 2325 
Q 2194 2569 2105 2655 
Q 2016 2741 1734 2747 
L 1734 2863 
L 2709 2863 
z
" transform="scale(0.015625)"/>
      </defs>
      <use xlink:href="#TimesNewRomanPSMT-43"/>
      <use xlink:href="#TimesNewRomanPSMT-6f" transform="translate(66.699219 0)"/>
      <use xlink:href="#TimesNewRomanPSMT-75" transform="translate(116.699219 0)"/>
      <use xlink:href="#TimesNewRomanPSMT-6e" transform="translate(166.699219 0)"/>
      <use xlink:href="#TimesNewRomanPSMT-74" transform="translate(216.699219 0)"/>
     </g>
    </g>
   </g>
   <g id="line2d_13">
    <path d="M 33.030868 91.933637 
L 33.030868 14.55524 
" clip-path="url(#pf60329bb6d)" style="fill: none; stroke-dasharray: 2.96,1.28; stroke-dashoffset: 0; stroke: #dc2626; stroke-opacity: 0.6; stroke-width: 0.8"/>
   </g>
   <g id="line2d_14">
    <path d="M 186.525822 91.933637 
L 186.525822 14.55524 
" clip-path="url(#pf60329bb6d)" style="fill: none; stroke-dasharray: 2.96,1.28; stroke-dashoffset: 0; stroke: #059669; stroke-opacity: 0.6; stroke-width: 0.8"/>
   </g>
   <g id="patch_18">
    <path d="M 25.358209 91.933637 
L 25.358209 14.55524 
" style="fill: none; stroke: #000000; stroke-width: 0.625; stroke-linejoin: miter; stroke-linecap: square"/>
   </g>
   <g id="patch_19">
    <path d="M 194.156717 91.933637 
L 194.156717 14.55524 
" style="fill: none; stroke: #000000; stroke-width: 0.625; stroke-linejoin: miter; stroke-linecap: square"/>
   </g>
   <g id="patch_20">
    <path d="M 25.358209 91.933637 
L 194.156718 91.933637 
" style="fill: none; stroke: #000000; stroke-width: 0.625; stroke-linejoin: miter; stroke-linecap: square"/>
   </g>
   <g id="patch_21">
    <path d="M 25.358209 14.55524 
L 194.156718 14.55524 
" style="fill: none; stroke: #000000; stroke-width: 0.625; stroke-linejoin: miter; stroke-linecap: square"/>
   </g>
   <g id="text_15">
    <!-- Entropy Distribution -->
    <g transform="translate(76.537463 8.55524) scale(0.08 -0.08)">
     <defs>
      <path id="TimesNewRomanPSMT-44" d="M 109 0 
L 109 116 
L 269 116 
Q 538 116 650 288 
Q 719 391 719 750 
L 719 3488 
Q 719 3884 631 3984 
Q 509 4122 269 4122 
L 109 4122 
L 109 4238 
L 1834 4238 
Q 2784 4238 3279 4022 
Q 3775 3806 4076 3303 
Q 4378 2800 4378 2141 
Q 4378 1256 3841 663 
Q 3238 0 2003 0 
L 109 0 
z
M 1319 306 
Q 1716 219 1984 219 
Q 2709 219 3187 728 
Q 3666 1238 3666 2109 
Q 3666 2988 3187 3494 
Q 2709 4000 1959 4000 
Q 1678 4000 1319 3909 
L 1319 306 
z
" transform="scale(0.015625)"/>
      <path id="TimesNewRomanPSMT-73" d="M 2050 2947 
L 2050 1972 
L 1947 1972 
Q 1828 2431 1642 2597 
Q 1456 2763 1169 2763 
Q 950 2763 815 2647 
Q 681 2531 681 2391 
Q 681 2216 781 2091 
Q 878 1963 1175 1819 
L 1631 1597 
Q 2266 1288 2266 781 
Q 2266 391 1970 151 
Q 1675 -88 1309 -88 
Q 1047 -88 709 6 
Q 606 38 541 38 
Q 469 38 428 -44 
L 325 -44 
L 325 978 
L 428 978 
Q 516 541 762 319 
Q 1009 97 1316 97 
Q 1531 97 1667 223 
Q 1803 350 1803 528 
Q 1803 744 1651 891 
Q 1500 1038 1047 1263 
Q 594 1488 453 1669 
Q 313 1847 313 2119 
Q 313 2472 555 2709 
Q 797 2947 1181 2947 
Q 1350 2947 1591 2875 
Q 1750 2828 1803 2828 
Q 1853 2828 1881 2850 
Q 1909 2872 1947 2947 
L 2050 2947 
z
" transform="scale(0.015625)"/>
      <path id="TimesNewRomanPSMT-62" d="M 984 2369 
Q 1400 2947 1881 2947 
Q 2322 2947 2650 2570 
Q 2978 2194 2978 1541 
Q 2978 778 2472 313 
Q 2038 -88 1503 -88 
Q 1253 -88 995 3 
Q 738 94 469 275 
L 469 3241 
Q 469 3728 445 3840 
Q 422 3953 372 3993 
Q 322 4034 247 4034 
Q 159 4034 28 3984 
L -16 4094 
L 844 4444 
L 984 4444 
L 984 2369 
z
M 984 2169 
L 984 456 
Q 1144 300 1314 220 
Q 1484 141 1663 141 
Q 1947 141 2192 453 
Q 2438 766 2438 1363 
Q 2438 1913 2192 2208 
Q 1947 2503 1634 2503 
Q 1469 2503 1303 2419 
Q 1178 2356 984 2169 
z
" transform="scale(0.015625)"/>
     </defs>
     <use xlink:href="#TimesNewRomanPSMT-45"/>
     <use xlink:href="#TimesNewRomanPSMT-6e" transform="translate(61.083984 0)"/>
     <use xlink:href="#TimesNewRomanPSMT-74" transform="translate(111.083984 0)"/>
     <use xlink:href="#TimesNewRomanPSMT-72" transform="translate(138.867188 0)"/>
     <use xlink:href="#TimesNewRomanPSMT-6f" transform="translate(172.167969 0)"/>
     <use xlink:href="#TimesNewRomanPSMT-70" transform="translate(222.167969 0)"/>
     <use xlink:href="#TimesNewRomanPSMT-79" transform="translate(272.167969 0)"/>
     <use xlink:href="#TimesNewRomanPSMT-20" transform="translate(322.167969 0)"/>
     <use xlink:href="#TimesNewRomanPSMT-44" transform="translate(347.167969 0)"/>
     <use xlink:href="#TimesNewRomanPSMT-69" transform="translate(419.384766 0)"/>
     <use xlink:href="#TimesNewRomanPSMT-73" transform="translate(447.167969 0)"/>
     <use xlink:href="#TimesNewRomanPSMT-74" transform="translate(486.083984 0)"/>
     <use xlink:href="#TimesNewRomanPSMT-72" transform="translate(513.867188 0)"/>
     <use xlink:href="#TimesNewRomanPSMT-69" transform="translate(547.167969 0)"/>
     <use xlink:href="#TimesNewRomanPSMT-62" transform="translate(574.951172 0)"/>
     <use xlink:href="#TimesNewRomanPSMT-75" transform="translate(624.951172 0)"/>
     <use xlink:href="#TimesNewRomanPSMT-74" transform="translate(674.951172 0)"/>
     <use xlink:href="#TimesNewRomanPSMT-69" transform="translate(702.734375 0)"/>
     <use xlink:href="#TimesNewRomanPSMT-6f" transform="translate(730.517578 0)"/>
     <use xlink:href="#TimesNewRomanPSMT-6e" transform="translate(780.517578 0)"/>
    </g>
   </g>
   <g id="legend_1">
    <g id="patch_22">
     <path d="M 83.128557 32.703677 
L 136.386369 32.703677 
Q 137.386369 32.703677 137.386369 31.703677 
L 137.386369 18.05524 
Q 137.386369 17.05524 136.386369 17.05524 
L 83.128557 17.05524 
Q 82.128557 17.05524 82.128557 18.05524 
L 82.128557 31.703677 
Q 82.128557 32.703677 83.128557 32.703677 
z
" style="fill: #ffffff; opacity: 0.8; stroke: #cccccc; stroke-linejoin: miter"/>
    </g>
    <g id="line2d_15">
     <path d="M 84.128557 20.80524 
L 89.128557 20.80524 
L 94.128557 20.80524 
" style="fill: none; stroke-dasharray: 2.96,1.28; stroke-dashoffset: 0; stroke: #dc2626; stroke-opacity: 0.6; stroke-width: 0.8"/>
    </g>
    <g id="text_16">
     <!-- H=0 (no diversity) -->
     <g transform="translate(98.128557 22.55524) scale(0.05 -0.05)">
      <defs>
       <path id="TimesNewRomanPSMT-3d" d="M 116 2759 
L 3488 2759 
L 3488 2503 
L 116 2503 
L 116 2759 
z
M 116 1741 
L 3488 1741 
L 3488 1484 
L 116 1484 
L 116 1741 
z
" transform="scale(0.015625)"/>
       <path id="TimesNewRomanPSMT-64" d="M 2222 322 
Q 2013 103 1813 7 
Q 1613 -88 1381 -88 
Q 913 -88 563 304 
Q 213 697 213 1313 
Q 213 1928 600 2439 
Q 988 2950 1597 2950 
Q 1975 2950 2222 2709 
L 2222 3238 
Q 2222 3728 2198 3840 
Q 2175 3953 2125 3993 
Q 2075 4034 2000 4034 
Q 1919 4034 1784 3984 
L 1744 4094 
L 2597 4444 
L 2738 4444 
L 2738 1134 
Q 2738 631 2761 520 
Q 2784 409 2836 365 
Q 2888 322 2956 322 
Q 3041 322 3181 375 
L 3216 266 
L 2366 -88 
L 2222 -88 
L 2222 322 
z
M 2222 541 
L 2222 2016 
Q 2203 2228 2109 2403 
Q 2016 2578 1861 2667 
Q 1706 2756 1559 2756 
Q 1284 2756 1069 2509 
Q 784 2184 784 1559 
Q 784 928 1059 592 
Q 1334 256 1672 256 
Q 1956 256 2222 541 
z
" transform="scale(0.015625)"/>
       <path id="TimesNewRomanPSMT-76" d="M 53 2863 
L 1400 2863 
L 1400 2747 
L 1313 2747 
Q 1191 2747 1127 2687 
Q 1063 2628 1063 2528 
Q 1063 2419 1128 2269 
L 1794 688 
L 2463 2328 
Q 2534 2503 2534 2594 
Q 2534 2638 2509 2666 
Q 2475 2713 2422 2730 
Q 2369 2747 2206 2747 
L 2206 2863 
L 3141 2863 
L 3141 2747 
Q 2978 2734 2916 2681 
Q 2806 2588 2719 2369 
L 1703 -88 
L 1575 -88 
L 553 2328 
Q 484 2497 421 2570 
Q 359 2644 263 2694 
Q 209 2722 53 2747 
L 53 2863 
z
" transform="scale(0.015625)"/>
      </defs>
      <use xlink:href="#TimesNewRomanPSMT-48"/>
      <use xlink:href="#TimesNewRomanPSMT-3d" transform="translate(72.216797 0)"/>
      <use xlink:href="#TimesNewRomanPSMT-30" transform="translate(128.613281 0)"/>
      <use xlink:href="#TimesNewRomanPSMT-20" transform="translate(178.613281 0)"/>
      <use xlink:href="#TimesNewRomanPSMT-28" transform="translate(203.613281 0)"/>
      <use xlink:href="#TimesNewRomanPSMT-6e" transform="translate(236.914062 0)"/>
      <use xlink:href="#TimesNewRomanPSMT-6f" transform="translate(286.914062 0)"/>
      <use xlink:href="#TimesNewRomanPSMT-20" transform="translate(336.914062 0)"/>
      <use xlink:href="#TimesNewRomanPSMT-64" transform="translate(361.914062 0)"/>
      <use xlink:href="#TimesNewRomanPSMT-69" transform="translate(411.914062 0)"/>
      <use xlink:href="#TimesNewRomanPSMT-76" transform="translate(439.697266 0)"/>
      <use xlink:href="#TimesNewRomanPSMT-65" transform="translate(489.697266 0)"/>
      <use xlink:href="#TimesNewRomanPSMT-72" transform="translate(534.082031 0)"/>
      <use xlink:href="#TimesNewRomanPSMT-73" transform="translate(567.382812 0)"/>
      <use xlink:href="#TimesNewRomanPSMT-69" transform="translate(606.298828 0)"/>
      <use xlink:href="#TimesNewRomanPSMT-74" transform="translate(634.082031 0)"/>
      <use xlink:href="#TimesNewRomanPSMT-79" transform="translate(661.865234 0)"/>
      <use xlink:href="#TimesNewRomanPSMT-29" transform="translate(711.865234 0)"/>
     </g>
    </g>
    <g id="line2d_16">
     <path d="M 84.128557 27.884146 
L 89.128557 27.884146 
L 94.128557 27.884146 
" style="fill: none; stroke-dasharray: 2.96,1.28; stroke-dashoffset: 0; stroke: #059669; stroke-opacity: 0.6; stroke-width: 0.8"/>
    </g>
    <g id="text_17">
     <!-- H=ln(5)=1.61 -->
     <g transform="translate(98.128557 29.634146) scale(0.05 -0.05)">
      <defs>
       <path id="TimesNewRomanPSMT-6c" d="M 1184 4444 
L 1184 647 
Q 1184 378 1223 290 
Q 1263 203 1344 158 
Q 1425 113 1647 113 
L 1647 0 
L 244 0 
L 244 113 
Q 441 113 512 153 
Q 584 194 625 287 
Q 666 381 666 647 
L 666 3247 
Q 666 3731 644 3842 
Q 622 3953 573 3993 
Q 525 4034 450 4034 
Q 369 4034 244 3984 
L 191 4094 
L 1044 4444 
L 1184 4444 
z
" transform="scale(0.015625)"/>
       <path id="TimesNewRomanPSMT-36" d="M 2869 4325 
L 2869 4209 
Q 2456 4169 2195 4045 
Q 1934 3922 1679 3669 
Q 1425 3416 1258 3105 
Q 1091 2794 978 2366 
Q 1428 2675 1881 2675 
Q 2316 2675 2634 2325 
Q 2953 1975 2953 1425 
Q 2953 894 2631 456 
Q 2244 -75 1606 -75 
Q 1172 -75 869 213 
Q 275 772 275 1663 
Q 275 2231 503 2743 
Q 731 3256 1154 3653 
Q 1578 4050 1965 4187 
Q 2353 4325 2688 4325 
L 2869 4325 
z
M 925 2138 
Q 869 1716 869 1456 
Q 869 1156 980 804 
Q 1091 453 1309 247 
Q 1469 100 1697 100 
Q 1969 100 2183 356 
Q 2397 613 2397 1088 
Q 2397 1622 2184 2012 
Q 1972 2403 1581 2403 
Q 1463 2403 1327 2353 
Q 1191 2303 925 2138 
z
" transform="scale(0.015625)"/>
      </defs>
      <use xlink:href="#TimesNewRomanPSMT-48"/>
      <use xlink:href="#TimesNewRomanPSMT-3d" transform="translate(72.216797 0)"/>
      <use xlink:href="#TimesNewRomanPSMT-6c" transform="translate(128.613281 0)"/>
      <use xlink:href="#TimesNewRomanPSMT-6e" transform="translate(156.396484 0)"/>
      <use xlink:href="#TimesNewRomanPSMT-28" transform="translate(206.396484 0)"/>
      <use xlink:href="#TimesNewRomanPSMT-35" transform="translate(239.697266 0)"/>
      <use xlink:href="#TimesNewRomanPSMT-29" transform="translate(289.697266 0)"/>
      <use xlink:href="#TimesNewRomanPSMT-3d" transform="translate(322.998047 0)"/>
      <use xlink:href="#TimesNewRomanPSMT-31" transform="translate(379.394531 0)"/>
      <use xlink:href="#TimesNewRomanPSMT-2e" transform="translate(429.394531 0)"/>
      <use xlink:href="#TimesNewRomanPSMT-36" transform="translate(454.394531 0)"/>
      <use xlink:href="#TimesNewRomanPSMT-31" transform="translate(504.394531 0)"/>
     </g>
    </g>
   </g>
  </g>
  <g id="axes_2">
   <g id="patch_23">
    <path d="M 224.278291 91.933637 
L 393.0768 91.933637 
L 393.0768 14.55524 
L 224.278291 14.55524 
z
" style="fill: #ffffff"/>
   </g>
   <g id="PathCollection_1">
    <defs>
     <path id="m30b2f663fc" d="M 0 1.936492 
C 0.513564 1.936492 1.006162 1.732451 1.369306 1.369306 
C 1.732451 1.006162 1.936492 0.513564 1.936492 0 
C 1.936492 -0.513564 1.732451 -1.006162 1.369306 -1.369306 
C 1.006162 -1.732451 0.513564 -1.936492 0 -1.936492 
C -0.513564 -1.936492 -1.006162 -1.732451 -1.369306 -1.369306 
C -1.732451 -1.006162 -1.936492 -0.513564 -1.936492 0 
C -1.936492 0.513564 -1.732451 1.006162 -1.369306 1.369306 
C -1.006162 1.732451 -0.513564 1.936492 0 1.936492 
z
" style="stroke: #ffffff; stroke-opacity: 0.5; stroke-width: 0.3"/>
    </defs>
    <g clip-path="url(#pbee4cb7109)">
     <use xlink:href="#m30b2f663fc" x="370.625832" y="21.300947" style="fill: #7c3aed; fill-opacity: 0.5; stroke: #ffffff; stroke-opacity: 0.5; stroke-width: 0.3"/>
     <use xlink:href="#m30b2f663fc" x="236.442379" y="88.416437" style="fill: #7c3aed; fill-opacity: 0.5; stroke: #ffffff; stroke-opacity: 0.5; stroke-width: 0.3"/>
     <use xlink:href="#m30b2f663fc" x="272.544007" y="60.343892" style="fill: #7c3aed; fill-opacity: 0.5; stroke: #ffffff; stroke-opacity: 0.5; stroke-width: 0.3"/>
     <use xlink:href="#m30b2f663fc" x="234.363485" y="88.416437" style="fill: #7c3aed; fill-opacity: 0.5; stroke: #ffffff; stroke-opacity: 0.5; stroke-width: 0.3"/>
     <use xlink:href="#m30b2f663fc" x="270.377875" y="60.343892" style="fill: #7c3aed; fill-opacity: 0.5; stroke: #ffffff; stroke-opacity: 0.5; stroke-width: 0.3"/>
     <use xlink:href="#m30b2f663fc" x="304.905909" y="48.789516" style="fill: #7c3aed; fill-opacity: 0.5; stroke: #ffffff; stroke-opacity: 0.5; stroke-width: 0.3"/>
     <use xlink:href="#m30b2f663fc" x="371.454306" y="21.300947" style="fill: #7c3aed; fill-opacity: 0.5; stroke: #ffffff; stroke-opacity: 0.5; stroke-width: 0.3"/>
     <use xlink:href="#m30b2f663fc" x="240.13021" y="88.416437" style="fill: #7c3aed; fill-opacity: 0.5; stroke: #ffffff; stroke-opacity: 0.5; stroke-width: 0.3"/>
     <use xlink:href="#m30b2f663fc" x="233.348751" y="88.416437" style="fill: #7c3aed; fill-opacity: 0.5; stroke: #ffffff; stroke-opacity: 0.5; stroke-width: 0.3"/>
     <use xlink:href="#m30b2f663fc" x="236.037605" y="88.416437" style="fill: #7c3aed; fill-opacity: 0.5; stroke: #ffffff; stroke-opacity: 0.5; stroke-width: 0.3"/>
     <use xlink:href="#m30b2f663fc" x="236.745534" y="88.416437" style="fill: #7c3aed; fill-opacity: 0.5; stroke: #ffffff; stroke-opacity: 0.5; stroke-width: 0.3"/>
     <use xlink:href="#m30b2f663fc" x="237.468039" y="88.416437" style="fill: #7c3aed; fill-opacity: 0.5; stroke: #ffffff; stroke-opacity: 0.5; stroke-width: 0.3"/>
     <use xlink:href="#m30b2f663fc" x="371.641985" y="21.300947" style="fill: #7c3aed; fill-opacity: 0.5; stroke: #ffffff; stroke-opacity: 0.5; stroke-width: 0.3"/>
     <use xlink:href="#m30b2f663fc" x="236.43815" y="88.416437" style="fill: #7c3aed; fill-opacity: 0.5; stroke: #ffffff; stroke-opacity: 0.5; stroke-width: 0.3"/>
     <use xlink:href="#m30b2f663fc" x="234.536762" y="88.416437" style="fill: #7c3aed; fill-opacity: 0.5; stroke: #ffffff; stroke-opacity: 0.5; stroke-width: 0.3"/>
     <use xlink:href="#m30b2f663fc" x="234.56305" y="88.416437" style="fill: #7c3aed; fill-opacity: 0.5; stroke: #ffffff; stroke-opacity: 0.5; stroke-width: 0.3"/>
     <use xlink:href="#m30b2f663fc" x="239.859857" y="88.416437" style="fill: #7c3aed; fill-opacity: 0.5; stroke: #ffffff; stroke-opacity: 0.5; stroke-width: 0.3"/>
     <use xlink:href="#m30b2f663fc" x="236.958969" y="88.416437" style="fill: #7c3aed; fill-opacity: 0.5; stroke: #ffffff; stroke-opacity: 0.5; stroke-width: 0.3"/>
     <use xlink:href="#m30b2f663fc" x="372.104494" y="21.300947" style="fill: #7c3aed; fill-opacity: 0.5; stroke: #ffffff; stroke-opacity: 0.5; stroke-width: 0.3"/>
     <use xlink:href="#m30b2f663fc" x="239.460804" y="88.416437" style="fill: #7c3aed; fill-opacity: 0.5; stroke: #ffffff; stroke-opacity: 0.5; stroke-width: 0.3"/>
     <use xlink:href="#m30b2f663fc" x="231.950951" y="88.416437" style="fill: #7c3aed; fill-opacity: 0.5; stroke: #ffffff; stroke-opacity: 0.5; stroke-width: 0.3"/>
     <use xlink:href="#m30b2f663fc" x="236.881109" y="88.416437" style="fill: #7c3aed; fill-opacity: 0.5; stroke: #ffffff; stroke-opacity: 0.5; stroke-width: 0.3"/>
     <use xlink:href="#m30b2f663fc" x="236.790089" y="88.416437" style="fill: #7c3aed; fill-opacity: 0.5; stroke: #ffffff; stroke-opacity: 0.5; stroke-width: 0.3"/>
     <use xlink:href="#m30b2f663fc" x="237.52503" y="88.416437" style="fill: #7c3aed; fill-opacity: 0.5; stroke: #ffffff; stroke-opacity: 0.5; stroke-width: 0.3"/>
     <use xlink:href="#m30b2f663fc" x="370.949264" y="21.300947" style="fill: #7c3aed; fill-opacity: 0.5; stroke: #ffffff; stroke-opacity: 0.5; stroke-width: 0.3"/>
     <use xlink:href="#m30b2f663fc" x="272.829136" y="67.560163" style="fill: #7c3aed; fill-opacity: 0.5; stroke: #ffffff; stroke-opacity: 0.5; stroke-width: 0.3"/>
     <use xlink:href="#m30b2f663fc" x="304.354136" y="48.789516" style="fill: #7c3aed; fill-opacity: 0.5; stroke: #ffffff; stroke-opacity: 0.5; stroke-width: 0.3"/>
     <use xlink:href="#m30b2f663fc" x="238.083855" y="88.416437" style="fill: #7c3aed; fill-opacity: 0.5; stroke: #ffffff; stroke-opacity: 0.5; stroke-width: 0.3"/>
     <use xlink:href="#m30b2f663fc" x="304.056836" y="48.789516" style="fill: #7c3aed; fill-opacity: 0.5; stroke: #ffffff; stroke-opacity: 0.5; stroke-width: 0.3"/>
     <use xlink:href="#m30b2f663fc" x="270.014024" y="60.343892" style="fill: #7c3aed; fill-opacity: 0.5; stroke: #ffffff; stroke-opacity: 0.5; stroke-width: 0.3"/>
     <use xlink:href="#m30b2f663fc" x="373.02769" y="21.300947" style="fill: #7c3aed; fill-opacity: 0.5; stroke: #ffffff; stroke-opacity: 0.5; stroke-width: 0.3"/>
     <use xlink:href="#m30b2f663fc" x="234.67105" y="88.416437" style="fill: #7c3aed; fill-opacity: 0.5; stroke: #ffffff; stroke-opacity: 0.5; stroke-width: 0.3"/>
     <use xlink:href="#m30b2f663fc" x="235.860975" y="88.416437" style="fill: #7c3aed; fill-opacity: 0.5; stroke: #ffffff; stroke-opacity: 0.5; stroke-width: 0.3"/>
     <use xlink:href="#m30b2f663fc" x="239.187077" y="88.416437" style="fill: #7c3aed; fill-opacity: 0.5; stroke: #ffffff; stroke-opacity: 0.5; stroke-width: 0.3"/>
     <use xlink:href="#m30b2f663fc" x="232.803894" y="88.416437" style="fill: #7c3aed; fill-opacity: 0.5; stroke: #ffffff; stroke-opacity: 0.5; stroke-width: 0.3"/>
     <use xlink:href="#m30b2f663fc" x="240.626598" y="88.416437" style="fill: #7c3aed; fill-opacity: 0.5; stroke: #ffffff; stroke-opacity: 0.5; stroke-width: 0.3"/>
     <use xlink:href="#m30b2f663fc" x="371.052297" y="21.300947" style="fill: #7c3aed; fill-opacity: 0.5; stroke: #ffffff; stroke-opacity: 0.5; stroke-width: 0.3"/>
     <use xlink:href="#m30b2f663fc" x="238.893729" y="88.416437" style="fill: #7c3aed; fill-opacity: 0.5; stroke: #ffffff; stroke-opacity: 0.5; stroke-width: 0.3"/>
     <use xlink:href="#m30b2f663fc" x="236.29837" y="88.416437" style="fill: #7c3aed; fill-opacity: 0.5; stroke: #ffffff; stroke-opacity: 0.5; stroke-width: 0.3"/>
     <use xlink:href="#m30b2f663fc" x="236.622608" y="88.416437" style="fill: #7c3aed; fill-opacity: 0.5; stroke: #ffffff; stroke-opacity: 0.5; stroke-width: 0.3"/>
     <use xlink:href="#m30b2f663fc" x="234.028046" y="88.416437" style="fill: #7c3aed; fill-opacity: 0.5; stroke: #ffffff; stroke-opacity: 0.5; stroke-width: 0.3"/>
     <use xlink:href="#m30b2f663fc" x="235.086359" y="88.416437" style="fill: #7c3aed; fill-opacity: 0.5; stroke: #ffffff; stroke-opacity: 0.5; stroke-width: 0.3"/>
     <use xlink:href="#m30b2f663fc" x="371.973448" y="21.300947" style="fill: #7c3aed; fill-opacity: 0.5; stroke: #ffffff; stroke-opacity: 0.5; stroke-width: 0.3"/>
     <use xlink:href="#m30b2f663fc" x="272.454192" y="67.560163" style="fill: #7c3aed; fill-opacity: 0.5; stroke: #ffffff; stroke-opacity: 0.5; stroke-width: 0.3"/>
     <use xlink:href="#m30b2f663fc" x="267.878352" y="67.560163" style="fill: #7c3aed; fill-opacity: 0.5; stroke: #ffffff; stroke-opacity: 0.5; stroke-width: 0.3"/>
     <use xlink:href="#m30b2f663fc" x="304.477734" y="44.409699" style="fill: #7c3aed; fill-opacity: 0.5; stroke: #ffffff; stroke-opacity: 0.5; stroke-width: 0.3"/>
     <use xlink:href="#m30b2f663fc" x="303.958987" y="48.789516" style="fill: #7c3aed; fill-opacity: 0.5; stroke: #ffffff; stroke-opacity: 0.5; stroke-width: 0.3"/>
     <use xlink:href="#m30b2f663fc" x="234.401156" y="88.416437" style="fill: #7c3aed; fill-opacity: 0.5; stroke: #ffffff; stroke-opacity: 0.5; stroke-width: 0.3"/>
     <use xlink:href="#m30b2f663fc" x="370.284311" y="21.300947" style="fill: #7c3aed; fill-opacity: 0.5; stroke: #ffffff; stroke-opacity: 0.5; stroke-width: 0.3"/>
     <use xlink:href="#m30b2f663fc" x="237.256909" y="88.416437" style="fill: #7c3aed; fill-opacity: 0.5; stroke: #ffffff; stroke-opacity: 0.5; stroke-width: 0.3"/>
     <use xlink:href="#m30b2f663fc" x="235.871076" y="88.416437" style="fill: #7c3aed; fill-opacity: 0.5; stroke: #ffffff; stroke-opacity: 0.5; stroke-width: 0.3"/>
     <use xlink:href="#m30b2f663fc" x="234.229851" y="88.416437" style="fill: #7c3aed; fill-opacity: 0.5; stroke: #ffffff; stroke-opacity: 0.5; stroke-width: 0.3"/>
     <use xlink:href="#m30b2f663fc" x="234.719072" y="88.416437" style="fill: #7c3aed; fill-opacity: 0.5; stroke: #ffffff; stroke-opacity: 0.5; stroke-width: 0.3"/>
     <use xlink:href="#m30b2f663fc" x="236.38887" y="88.416437" style="fill: #7c3aed; fill-opacity: 0.5; stroke: #ffffff; stroke-opacity: 0.5; stroke-width: 0.3"/>
     <use xlink:href="#m30b2f663fc" x="374.338909" y="21.300947" style="fill: #7c3aed; fill-opacity: 0.5; stroke: #ffffff; stroke-opacity: 0.5; stroke-width: 0.3"/>
     <use xlink:href="#m30b2f663fc" x="234.217542" y="88.416437" style="fill: #7c3aed; fill-opacity: 0.5; stroke: #ffffff; stroke-opacity: 0.5; stroke-width: 0.3"/>
     <use xlink:href="#m30b2f663fc" x="233.677691" y="88.416437" style="fill: #7c3aed; fill-opacity: 0.5; stroke: #ffffff; stroke-opacity: 0.5; stroke-width: 0.3"/>
     <use xlink:href="#m30b2f663fc" x="236.424986" y="88.416437" style="fill: #7c3aed; fill-opacity: 0.5; stroke: #ffffff; stroke-opacity: 0.5; stroke-width: 0.3"/>
     <use xlink:href="#m30b2f663fc" x="235.244167" y="88.416437" style="fill: #7c3aed; fill-opacity: 0.5; stroke: #ffffff; stroke-opacity: 0.5; stroke-width: 0.3"/>
     <use xlink:href="#m30b2f663fc" x="238.576554" y="88.416437" style="fill: #7c3aed; fill-opacity: 0.5; stroke: #ffffff; stroke-opacity: 0.5; stroke-width: 0.3"/>
    </g>
   </g>
   <g id="matplotlib.axis_3">
    <g id="xtick_8">
     <g id="line2d_17">
      <g>
       <use xlink:href="#m8aa830d954" x="236.573548" y="91.933637" style="stroke: #000000; stroke-width: 0.5"/>
      </g>
     </g>
     <g id="text_18">
      <!-- $\mathdefault{1}$ -->
      <g transform="translate(234.823548 101.794262) scale(0.07 -0.07)">
       <use xlink:href="#TimesNewRomanPSMT-31" transform="translate(0 0.421875)"/>
      </g>
     </g>
    </g>
    <g id="xtick_9">
     <g id="line2d_18">
      <g>
       <use xlink:href="#m8aa830d954" x="270.398683" y="91.933637" style="stroke: #000000; stroke-width: 0.5"/>
      </g>
     </g>
     <g id="text_19">
      <!-- $\mathdefault{2}$ -->
      <g transform="translate(268.648683 101.794262) scale(0.07 -0.07)">
       <use xlink:href="#TimesNewRomanPSMT-32" transform="translate(0 0.421875)"/>
      </g>
     </g>
    </g>
    <g id="xtick_10">
     <g id="line2d_19">
      <g>
       <use xlink:href="#m8aa830d954" x="304.223817" y="91.933637" style="stroke: #000000; stroke-width: 0.5"/>
      </g>
     </g>
     <g id="text_20">
      <!-- $\mathdefault{3}$ -->
      <g transform="translate(302.473817 101.794262) scale(0.07 -0.07)">
       <use xlink:href="#TimesNewRomanPSMT-33" transform="translate(0 0.421875)"/>
      </g>
     </g>
    </g>
    <g id="xtick_11">
     <g id="line2d_20">
      <g>
       <use xlink:href="#m8aa830d954" x="338.048952" y="91.933637" style="stroke: #000000; stroke-width: 0.5"/>
      </g>
     </g>
     <g id="text_21">
      <!-- $\mathdefault{4}$ -->
      <g transform="translate(336.298952 101.794262) scale(0.07 -0.07)">
       <use xlink:href="#TimesNewRomanPSMT-34" transform="translate(0 0.421875)"/>
      </g>
     </g>
    </g>
    <g id="xtick_12">
     <g id="line2d_21">
      <g>
       <use xlink:href="#m8aa830d954" x="371.874087" y="91.933637" style="stroke: #000000; stroke-width: 0.5"/>
      </g>
     </g>
     <g id="text_22">
      <!-- $\mathdefault{5}$ -->
      <g transform="translate(370.124087 101.794262) scale(0.07 -0.07)">
       <use xlink:href="#TimesNewRomanPSMT-35" transform="translate(0 0.78125)"/>
      </g>
     </g>
    </g>
    <g id="text_23">
     <!-- Number of Clusters (K) -->
     <g transform="translate(275.336764 112.15223) scale(0.07 -0.07)">
      <defs>
       <path id="TimesNewRomanPSMT-4e" d="M -84 4238 
L 1066 4238 
L 3656 1059 
L 3656 3503 
Q 3656 3894 3569 3991 
Q 3453 4122 3203 4122 
L 3056 4122 
L 3056 4238 
L 4531 4238 
L 4531 4122 
L 4381 4122 
Q 4113 4122 4000 3959 
Q 3931 3859 3931 3503 
L 3931 -69 
L 3819 -69 
L 1025 3344 
L 1025 734 
Q 1025 344 1109 247 
Q 1228 116 1475 116 
L 1625 116 
L 1625 0 
L 150 0 
L 150 116 
L 297 116 
Q 569 116 681 278 
Q 750 378 750 734 
L 750 3681 
Q 566 3897 470 3965 
Q 375 4034 191 4094 
Q 100 4122 -84 4122 
L -84 4238 
z
" transform="scale(0.015625)"/>
       <path id="TimesNewRomanPSMT-66" d="M 1319 2638 
L 1319 756 
Q 1319 356 1406 250 
Q 1522 113 1716 113 
L 1975 113 
L 1975 0 
L 266 0 
L 266 113 
L 394 113 
Q 519 113 622 175 
Q 725 238 764 344 
Q 803 450 803 756 
L 803 2638 
L 247 2638 
L 247 2863 
L 803 2863 
L 803 3050 
Q 803 3478 940 3775 
Q 1078 4072 1361 4255 
Q 1644 4438 1997 4438 
Q 2325 4438 2600 4225 
Q 2781 4084 2781 3909 
Q 2781 3816 2700 3733 
Q 2619 3650 2525 3650 
Q 2453 3650 2373 3701 
Q 2294 3753 2178 3923 
Q 2063 4094 1966 4153 
Q 1869 4213 1750 4213 
Q 1606 4213 1506 4136 
Q 1406 4059 1362 3898 
Q 1319 3738 1319 3069 
L 1319 2863 
L 2056 2863 
L 2056 2638 
L 1319 2638 
z
" transform="scale(0.015625)"/>
       <path id="TimesNewRomanPSMT-4b" d="M 1913 2350 
L 3475 797 
Q 3859 413 4131 273 
Q 4403 134 4675 116 
L 4675 0 
L 2659 0 
L 2659 116 
Q 2841 116 2920 177 
Q 3000 238 3000 313 
Q 3000 388 2970 447 
Q 2941 506 2775 669 
L 1313 2116 
L 1313 750 
Q 1313 428 1353 325 
Q 1384 247 1484 191 
Q 1619 116 1769 116 
L 1913 116 
L 1913 0 
L 106 0 
L 106 116 
L 256 116 
Q 519 116 638 269 
Q 713 369 713 750 
L 713 3488 
Q 713 3809 672 3916 
Q 641 3991 544 4047 
Q 406 4122 256 4122 
L 106 4122 
L 106 4238 
L 1913 4238 
L 1913 4122 
L 1769 4122 
Q 1622 4122 1484 4050 
Q 1388 4000 1350 3900 
Q 1313 3800 1313 3488 
L 1313 2191 
Q 1375 2250 1741 2588 
Q 2669 3438 2863 3722 
Q 2947 3847 2947 3941 
Q 2947 4013 2881 4067 
Q 2816 4122 2659 4122 
L 2563 4122 
L 2563 4238 
L 4119 4238 
L 4119 4122 
Q 3981 4119 3868 4084 
Q 3756 4050 3593 3951 
Q 3431 3853 3194 3634 
Q 3125 3572 2559 2994 
L 1913 2350 
z
" transform="scale(0.015625)"/>
      </defs>
      <use xlink:href="#TimesNewRomanPSMT-4e"/>
      <use xlink:href="#TimesNewRomanPSMT-75" transform="translate(72.216797 0)"/>
      <use xlink:href="#TimesNewRomanPSMT-6d" transform="translate(122.216797 0)"/>
      <use xlink:href="#TimesNewRomanPSMT-62" transform="translate(200 0)"/>
      <use xlink:href="#TimesNewRomanPSMT-65" transform="translate(250 0)"/>
      <use xlink:href="#TimesNewRomanPSMT-72" transform="translate(294.384766 0)"/>
      <use xlink:href="#TimesNewRomanPSMT-20" transform="translate(327.685547 0)"/>
      <use xlink:href="#TimesNewRomanPSMT-6f" transform="translate(352.685547 0)"/>
      <use xlink:href="#TimesNewRomanPSMT-66" transform="translate(402.685547 0)"/>
      <use xlink:href="#TimesNewRomanPSMT-20" transform="translate(435.986328 0)"/>
      <use xlink:href="#TimesNewRomanPSMT-43" transform="translate(460.986328 0)"/>
      <use xlink:href="#TimesNewRomanPSMT-6c" transform="translate(527.685547 0)"/>
      <use xlink:href="#TimesNewRomanPSMT-75" transform="translate(555.46875 0)"/>
      <use xlink:href="#TimesNewRomanPSMT-73" transform="translate(605.46875 0)"/>
      <use xlink:href="#TimesNewRomanPSMT-74" transform="translate(644.384766 0)"/>
      <use xlink:href="#TimesNewRomanPSMT-65" transform="translate(672.167969 0)"/>
      <use xlink:href="#TimesNewRomanPSMT-72" transform="translate(716.552734 0)"/>
      <use xlink:href="#TimesNewRomanPSMT-73" transform="translate(749.853516 0)"/>
      <use xlink:href="#TimesNewRomanPSMT-20" transform="translate(788.769531 0)"/>
      <use xlink:href="#TimesNewRomanPSMT-28" transform="translate(813.769531 0)"/>
      <use xlink:href="#TimesNewRomanPSMT-4b" transform="translate(847.070312 0)"/>
      <use xlink:href="#TimesNewRomanPSMT-29" transform="translate(919.287109 0)"/>
     </g>
    </g>
   </g>
   <g id="matplotlib.axis_4">
    <g id="ytick_6">
     <g id="line2d_22">
      <g>
       <use xlink:href="#mb9fc9875b2" x="224.278291" y="88.416437" style="stroke: #000000; stroke-width: 0.5"/>
      </g>
     </g>
     <g id="text_24">
      <!-- $\mathdefault{0.0}$ -->
      <g transform="translate(210.528291 90.846749) scale(0.07 -0.07)">
       <use xlink:href="#TimesNewRomanPSMT-30" transform="translate(0 0.421875)"/>
       <use xlink:href="#TimesNewRomanPSMT-2e" transform="translate(50 0.421875)"/>
       <use xlink:href="#TimesNewRomanPSMT-30" transform="translate(75 0.421875)"/>
      </g>
     </g>
    </g>
    <g id="ytick_7">
     <g id="line2d_23">
      <g>
       <use xlink:href="#mb9fc9875b2" x="224.278291" y="67.560163" style="stroke: #000000; stroke-width: 0.5"/>
      </g>
     </g>
     <g id="text_25">
      <!-- $\mathdefault{0.5}$ -->
      <g transform="translate(210.528291 69.990475) scale(0.07 -0.07)">
       <use xlink:href="#TimesNewRomanPSMT-30" transform="translate(0 0.421875)"/>
       <use xlink:href="#TimesNewRomanPSMT-2e" transform="translate(50 0.421875)"/>
       <use xlink:href="#TimesNewRomanPSMT-35" transform="translate(75 0.421875)"/>
      </g>
     </g>
    </g>
    <g id="ytick_8">
     <g id="line2d_24">
      <g>
       <use xlink:href="#mb9fc9875b2" x="224.278291" y="46.703889" style="stroke: #000000; stroke-width: 0.5"/>
      </g>
     </g>
     <g id="text_26">
      <!-- $\mathdefault{1.0}$ -->
      <g transform="translate(210.528291 49.134202) scale(0.07 -0.07)">
       <use xlink:href="#TimesNewRomanPSMT-31" transform="translate(0 0.421875)"/>
       <use xlink:href="#TimesNewRomanPSMT-2e" transform="translate(50 0.421875)"/>
       <use xlink:href="#TimesNewRomanPSMT-30" transform="translate(75 0.421875)"/>
      </g>
     </g>
    </g>
    <g id="ytick_9">
     <g id="line2d_25">
      <g>
       <use xlink:href="#mb9fc9875b2" x="224.278291" y="25.847615" style="stroke: #000000; stroke-width: 0.5"/>
      </g>
     </g>
     <g id="text_27">
      <!-- $\mathdefault{1.5}$ -->
      <g transform="translate(210.528291 28.277928) scale(0.07 -0.07)">
       <use xlink:href="#TimesNewRomanPSMT-31" transform="translate(0 0.421875)"/>
       <use xlink:href="#TimesNewRomanPSMT-2e" transform="translate(50 0.421875)"/>
       <use xlink:href="#TimesNewRomanPSMT-35" transform="translate(75 0.421875)"/>
      </g>
     </g>
    </g>
    <g id="text_28">
     <!-- Semantic Entropy (H) -->
     <g transform="translate(205.017823 84.15272) rotate(-90) scale(0.07 -0.07)">
      <use xlink:href="#TimesNewRomanPSMT-53"/>
      <use xlink:href="#TimesNewRomanPSMT-65" transform="translate(55.615234 0)"/>
      <use xlink:href="#TimesNewRomanPSMT-6d" transform="translate(100 0)"/>
      <use xlink:href="#TimesNewRomanPSMT-61" transform="translate(177.783203 0)"/>
      <use xlink:href="#TimesNewRomanPSMT-6e" transform="translate(222.167969 0)"/>
      <use xlink:href="#TimesNewRomanPSMT-74" transform="translate(272.167969 0)"/>
      <use xlink:href="#TimesNewRomanPSMT-69" transform="translate(299.951172 0)"/>
      <use xlink:href="#TimesNewRomanPSMT-63" transform="translate(327.734375 0)"/>
      <use xlink:href="#TimesNewRomanPSMT-20" transform="translate(372.119141 0)"/>
      <use xlink:href="#TimesNewRomanPSMT-45" transform="translate(397.119141 0)"/>
      <use xlink:href="#TimesNewRomanPSMT-6e" transform="translate(458.203125 0)"/>
      <use xlink:href="#TimesNewRomanPSMT-74" transform="translate(508.203125 0)"/>
      <use xlink:href="#TimesNewRomanPSMT-72" transform="translate(535.986328 0)"/>
      <use xlink:href="#TimesNewRomanPSMT-6f" transform="translate(569.287109 0)"/>
      <use xlink:href="#TimesNewRomanPSMT-70" transform="translate(619.287109 0)"/>
      <use xlink:href="#TimesNewRomanPSMT-79" transform="translate(669.287109 0)"/>
      <use xlink:href="#TimesNewRomanPSMT-20" transform="translate(719.287109 0)"/>
      <use xlink:href="#TimesNewRomanPSMT-28" transform="translate(744.287109 0)"/>
      <use xlink:href="#TimesNewRomanPSMT-48" transform="translate(777.587891 0)"/>
      <use xlink:href="#TimesNewRomanPSMT-29" transform="translate(849.804688 0)"/>
     </g>
    </g>
   </g>
   <g id="line2d_26">
    <path d="M 236.573548 88.416437 
L 239.956061 84.440806 
L 243.338575 80.81134 
L 246.721088 77.472555 
L 250.103602 74.381323 
L 253.486115 71.503454 
L 256.868629 68.811388 
L 260.251142 66.282581 
L 263.633656 63.898357 
L 267.016169 61.643076 
L 270.398683 59.503502 
L 273.781196 57.46834 
L 277.16371 55.527871 
L 280.546223 53.673675 
L 283.928736 51.898405 
L 287.31125 50.195616 
L 290.693763 48.55962 
L 294.076277 46.985375 
L 297.45879 45.468388 
L 300.841304 44.004639 
L 304.223817 42.590519 
L 307.606331 41.222772 
L 310.988844 39.898453 
L 314.371358 38.614889 
L 317.753871 37.369646 
L 321.136385 36.160502 
L 324.518898 34.985423 
L 327.901412 33.842542 
L 331.283925 32.730141 
L 334.666439 31.646637 
L 338.048952 30.590567 
L 341.431465 29.560575 
L 344.813979 28.555405 
L 348.196492 27.573888 
L 351.579006 26.614937 
L 354.961519 25.677537 
L 358.344033 24.76074 
L 361.726546 23.863662 
L 365.10906 22.98547 
L 368.491573 22.125387 
L 371.874087 21.282681 
L 375.2566 20.456663 
L 378.639114 19.646685 
L 382.021627 18.852136 
L 385.404141 18.07244 
" clip-path="url(#pbee4cb7109)" style="fill: none; stroke-dasharray: 2.96,1.28; stroke-dashoffset: 0; stroke: #dc2626; stroke-opacity: 0.6; stroke-width: 0.8"/>
   </g>
   <g id="patch_24">
    <path d="M 224.278291 91.933637 
L 224.278291 14.55524 
" style="fill: none; stroke: #000000; stroke-width: 0.625; stroke-linejoin: miter; stroke-linecap: square"/>
   </g>
   <g id="patch_25">
    <path d="M 393.0768 91.933637 
L 393.0768 14.55524 
" style="fill: none; stroke: #000000; stroke-width: 0.625; stroke-linejoin: miter; stroke-linecap: square"/>
   </g>
   <g id="patch_26">
    <path d="M 224.278291 91.933637 
L 393.0768 91.933637 
" style="fill: none; stroke: #000000; stroke-width: 0.625; stroke-linejoin: miter; stroke-linecap: square"/>
   </g>
   <g id="patch_27">
    <path d="M 224.278291 14.55524 
L 393.0768 14.55524 
" style="fill: none; stroke: #000000; stroke-width: 0.625; stroke-linejoin: miter; stroke-linecap: square"/>
   </g>
   <g id="text_29">
    <!-- Clusters vs. Entropy -->
    <g transform="translate(276.122546 8.55524) scale(0.08 -0.08)">
     <use xlink:href="#TimesNewRomanPSMT-43"/>
     <use xlink:href="#TimesNewRomanPSMT-6c" transform="translate(66.699219 0)"/>
     <use xlink:href="#TimesNewRomanPSMT-75" transform="translate(94.482422 0)"/>
     <use xlink:href="#TimesNewRomanPSMT-73" transform="translate(144.482422 0)"/>
     <use xlink:href="#TimesNewRomanPSMT-74" transform="translate(183.398438 0)"/>
     <use xlink:href="#TimesNewRomanPSMT-65" transform="translate(211.181641 0)"/>
     <use xlink:href="#TimesNewRomanPSMT-72" transform="translate(255.566406 0)"/>
     <use xlink:href="#TimesNewRomanPSMT-73" transform="translate(288.867188 0)"/>
     <use xlink:href="#TimesNewRomanPSMT-20" transform="translate(327.783203 0)"/>
     <use xlink:href="#TimesNewRomanPSMT-76" transform="translate(352.783203 0)"/>
     <use xlink:href="#TimesNewRomanPSMT-73" transform="translate(402.783203 0)"/>
     <use xlink:href="#TimesNewRomanPSMT-2e" transform="translate(441.699219 0)"/>
     <use xlink:href="#TimesNewRomanPSMT-20" transform="translate(466.699219 0)"/>
     <use xlink:href="#TimesNewRomanPSMT-45" transform="translate(491.699219 0)"/>
     <use xlink:href="#TimesNewRomanPSMT-6e" transform="translate(552.783203 0)"/>
     <use xlink:href="#TimesNewRomanPSMT-74" transform="translate(602.783203 0)"/>
     <use xlink:href="#TimesNewRomanPSMT-72" transform="translate(630.566406 0)"/>
     <use xlink:href="#TimesNewRomanPSMT-6f" transform="translate(663.867188 0)"/>
     <use xlink:href="#TimesNewRomanPSMT-70" transform="translate(713.867188 0)"/>
     <use xlink:href="#TimesNewRomanPSMT-79" transform="translate(763.867188 0)"/>
    </g>
   </g>
   <g id="legend_2">
    <g id="patch_28">
     <path d="M 227.778291 26.05524 
L 273.128291 26.05524 
Q 274.128291 26.05524 274.128291 25.05524 
L 274.128291 18.05524 
Q 274.128291 17.05524 273.128291 17.05524 
L 227.778291 17.05524 
Q 226.778291 17.05524 226.778291 18.05524 
L 226.778291 25.05524 
Q 226.778291 26.05524 227.778291 26.05524 
z
" style="fill: #ffffff; opacity: 0.8; stroke: #cccccc; stroke-linejoin: miter"/>
    </g>
    <g id="line2d_27">
     <path d="M 228.778291 21.05524 
L 233.778291 21.05524 
L 238.778291 21.05524 
" style="fill: none; stroke-dasharray: 2.96,1.28; stroke-dashoffset: 0; stroke: #dc2626; stroke-opacity: 0.6; stroke-width: 0.8"/>
    </g>
    <g id="text_30">
     <!-- $H_{max}=\ln(K)$ -->
     <g transform="translate(242.778291 22.80524) scale(0.05 -0.05)">
      <defs>
       <path id="Cmmi10-48" d="M 300 0 
Q 238 0 238 84 
Q 241 100 250 139 
Q 259 178 276 201 
Q 294 225 319 225 
Q 709 225 863 269 
Q 947 297 984 441 
L 1863 3956 
Q 1875 4019 1875 4044 
Q 1875 4113 1797 4122 
Q 1678 4147 1338 4147 
Q 1275 4147 1275 4231 
Q 1297 4313 1309 4342 
Q 1322 4372 1381 4372 
L 3103 4372 
Q 3169 4372 3169 4288 
Q 3166 4272 3156 4234 
Q 3147 4197 3131 4172 
Q 3116 4147 3084 4147 
Q 2694 4147 2541 4103 
Q 2456 4072 2419 3928 
L 2034 2388 
L 3956 2388 
L 4347 3956 
Q 4359 4019 4359 4044 
Q 4359 4113 4281 4122 
Q 4159 4147 3822 4147 
Q 3756 4147 3756 4231 
Q 3778 4313 3790 4342 
Q 3803 4372 3866 4372 
L 5588 4372 
Q 5650 4372 5650 4288 
Q 5647 4272 5637 4233 
Q 5628 4194 5611 4170 
Q 5594 4147 5569 4147 
Q 5178 4147 5025 4103 
Q 4941 4075 4903 3928 
L 4025 416 
Q 4013 353 4013 325 
Q 4013 259 4091 250 
Q 4213 225 4550 225 
Q 4616 225 4616 141 
Q 4597 66 4578 33 
Q 4559 0 4506 0 
L 2784 0 
Q 2719 0 2719 84 
Q 2731 131 2737 153 
Q 2744 175 2761 200 
Q 2778 225 2803 225 
Q 3194 225 3347 269 
Q 3431 297 3469 441 
L 3897 2163 
L 1978 2163 
L 1544 416 
Q 1528 338 1528 325 
Q 1528 259 1606 250 
Q 1728 225 2069 225 
Q 2131 225 2131 141 
Q 2109 56 2095 28 
Q 2081 0 2022 0 
L 300 0 
z
" transform="scale(0.015625)"/>
       <path id="Cmmi10-6d" d="M 494 109 
Q 494 147 500 166 
L 978 2075 
Q 1025 2253 1025 2388 
Q 1025 2663 838 2663 
Q 638 2663 541 2423 
Q 444 2184 353 1819 
Q 353 1800 334 1789 
Q 316 1778 300 1778 
L 225 1778 
Q 203 1778 187 1801 
Q 172 1825 172 1844 
Q 241 2122 305 2315 
Q 369 2509 505 2668 
Q 641 2828 844 2828 
Q 1084 2828 1268 2676 
Q 1453 2525 1453 2291 
Q 1644 2541 1900 2684 
Q 2156 2828 2444 2828 
Q 2747 2828 2967 2673 
Q 3188 2519 3188 2234 
Q 3384 2513 3648 2670 
Q 3913 2828 4225 2828 
Q 4556 2828 4757 2648 
Q 4959 2469 4959 2138 
Q 4959 1875 4842 1503 
Q 4725 1131 4550 672 
Q 4459 450 4459 288 
Q 4459 97 4609 97 
Q 4859 97 5025 365 
Q 5191 634 5259 941 
Q 5278 978 5313 978 
L 5388 978 
Q 5413 978 5430 961 
Q 5447 944 5447 922 
Q 5447 916 5441 903 
Q 5353 541 5136 234 
Q 4919 -72 4594 -72 
Q 4369 -72 4209 83 
Q 4050 238 4050 459 
Q 4050 572 4103 709 
Q 4284 1191 4404 1569 
Q 4525 1947 4525 2234 
Q 4525 2413 4453 2538 
Q 4381 2663 4213 2663 
Q 3863 2663 3606 2448 
Q 3350 2234 3163 1881 
Q 3150 1819 3144 1784 
L 2731 141 
Q 2709 53 2632 -9 
Q 2556 -72 2463 -72 
Q 2388 -72 2330 -22 
Q 2272 28 2272 109 
Q 2272 147 2278 166 
L 2688 1797 
Q 2753 2059 2753 2234 
Q 2753 2413 2679 2538 
Q 2606 2663 2431 2663 
Q 2197 2663 2000 2559 
Q 1803 2456 1656 2286 
Q 1509 2116 1388 1881 
L 953 141 
Q 931 53 854 -9 
Q 778 -72 684 -72 
Q 606 -72 550 -22 
Q 494 28 494 109 
z
" transform="scale(0.015625)"/>
       <path id="Cmmi10-61" d="M 1113 -72 
Q 709 -72 476 233 
Q 244 538 244 953 
Q 244 1363 456 1803 
Q 669 2244 1030 2536 
Q 1391 2828 1806 2828 
Q 1997 2828 2147 2725 
Q 2297 2622 2381 2444 
Q 2453 2700 2663 2700 
Q 2744 2700 2798 2651 
Q 2853 2603 2853 2522 
Q 2853 2503 2851 2493 
Q 2850 2484 2847 2472 
L 2400 684 
Q 2356 494 2356 372 
Q 2356 97 2541 97 
Q 2741 97 2845 351 
Q 2950 606 3022 941 
Q 3034 978 3072 978 
L 3150 978 
Q 3175 978 3190 956 
Q 3206 934 3206 916 
Q 3094 469 2961 198 
Q 2828 -72 2528 -72 
Q 2313 -72 2147 54 
Q 1981 181 1941 391 
Q 1528 -72 1113 -72 
z
M 1119 97 
Q 1350 97 1567 270 
Q 1784 444 1941 678 
Q 1947 684 1947 697 
L 2291 2088 
L 2297 2106 
Q 2259 2334 2132 2498 
Q 2006 2663 1791 2663 
Q 1575 2663 1389 2486 
Q 1203 2309 1075 2069 
Q 950 1813 836 1366 
Q 722 919 722 672 
Q 722 450 817 273 
Q 913 97 1119 97 
z
" transform="scale(0.015625)"/>
       <path id="Cmmi10-78" d="M 500 184 
Q 613 97 819 97 
Q 1019 97 1172 289 
Q 1325 481 1381 709 
L 1672 1844 
Q 1741 2153 1741 2266 
Q 1741 2425 1652 2544 
Q 1563 2663 1403 2663 
Q 1200 2663 1022 2536 
Q 844 2409 722 2214 
Q 600 2019 550 1819 
Q 538 1778 500 1778 
L 422 1778 
Q 372 1778 372 1838 
L 372 1856 
Q 434 2094 584 2320 
Q 734 2547 951 2687 
Q 1169 2828 1416 2828 
Q 1650 2828 1839 2703 
Q 2028 2578 2106 2363 
Q 2216 2559 2386 2693 
Q 2556 2828 2759 2828 
Q 2897 2828 3040 2779 
Q 3184 2731 3275 2631 
Q 3366 2531 3366 2381 
Q 3366 2219 3261 2101 
Q 3156 1984 2994 1984 
Q 2891 1984 2822 2050 
Q 2753 2116 2753 2216 
Q 2753 2350 2845 2451 
Q 2938 2553 3066 2572 
Q 2950 2663 2747 2663 
Q 2541 2663 2389 2472 
Q 2238 2281 2175 2047 
L 1894 916 
Q 1825 659 1825 494 
Q 1825 331 1917 214 
Q 2009 97 2163 97 
Q 2463 97 2698 361 
Q 2934 625 3009 941 
Q 3022 978 3059 978 
L 3138 978 
Q 3163 978 3178 961 
Q 3194 944 3194 922 
Q 3194 916 3188 903 
Q 3097 522 2806 225 
Q 2516 -72 2150 -72 
Q 1916 -72 1727 54 
Q 1538 181 1459 397 
Q 1359 209 1182 68 
Q 1006 -72 806 -72 
Q 669 -72 523 -23 
Q 378 25 287 125 
Q 197 225 197 378 
Q 197 528 301 651 
Q 406 775 563 775 
Q 669 775 741 711 
Q 813 647 813 544 
Q 813 409 723 309 
Q 634 209 500 184 
z
" transform="scale(0.015625)"/>
       <path id="Cmr10-3d" d="M 481 850 
Q 428 850 393 890 
Q 359 931 359 978 
Q 359 1031 393 1068 
Q 428 1106 481 1106 
L 4500 1106 
Q 4547 1106 4581 1068 
Q 4616 1031 4616 978 
Q 4616 931 4581 890 
Q 4547 850 4500 850 
L 481 850 
z
M 481 2094 
Q 428 2094 393 2131 
Q 359 2169 359 2222 
Q 359 2269 393 2309 
Q 428 2350 481 2350 
L 4500 2350 
Q 4547 2350 4581 2309 
Q 4616 2269 4616 2222 
Q 4616 2169 4581 2131 
Q 4547 2094 4500 2094 
L 481 2094 
z
" transform="scale(0.015625)"/>
       <path id="Cmr10-6c" d="M 197 0 
L 197 225 
Q 416 225 556 259 
Q 697 294 697 428 
L 697 3788 
Q 697 3959 645 4036 
Q 594 4113 497 4130 
Q 400 4147 197 4147 
L 197 4372 
L 1147 4441 
L 1147 428 
Q 1147 294 1287 259 
Q 1428 225 1644 225 
L 1644 0 
L 197 0 
z
" transform="scale(0.015625)"/>
       <path id="Cmr10-6e" d="M 191 0 
L 191 225 
Q 409 225 550 259 
Q 691 294 691 428 
L 691 2175 
Q 691 2347 639 2423 
Q 588 2500 491 2517 
Q 394 2534 191 2534 
L 191 2759 
L 1119 2828 
L 1119 2203 
Q 1247 2478 1498 2653 
Q 1750 2828 2047 2828 
Q 2491 2828 2714 2615 
Q 2938 2403 2938 1966 
L 2938 428 
Q 2938 294 3078 259 
Q 3219 225 3438 225 
L 3438 0 
L 1972 0 
L 1972 225 
Q 2191 225 2331 259 
Q 2472 294 2472 428 
L 2472 1947 
Q 2472 2259 2381 2461 
Q 2291 2663 2009 2663 
Q 1638 2663 1398 2366 
Q 1159 2069 1159 1691 
L 1159 428 
Q 1159 294 1300 259 
Q 1441 225 1656 225 
L 1656 0 
L 191 0 
z
" transform="scale(0.015625)"/>
       <path id="Cmr10-28" d="M 1984 -1588 
Q 1628 -1306 1370 -942 
Q 1113 -578 948 -165 
Q 784 247 703 697 
Q 622 1147 622 1600 
Q 622 2059 703 2509 
Q 784 2959 951 3375 
Q 1119 3791 1378 4153 
Q 1638 4516 1984 4788 
Q 1984 4800 2016 4800 
L 2075 4800 
Q 2094 4800 2109 4783 
Q 2125 4766 2125 4744 
Q 2125 4716 2113 4703 
Q 1800 4397 1592 4047 
Q 1384 3697 1257 3301 
Q 1131 2906 1075 2482 
Q 1019 2059 1019 1600 
Q 1019 -434 2106 -1491 
Q 2125 -1509 2125 -1544 
Q 2125 -1559 2108 -1579 
Q 2091 -1600 2075 -1600 
L 2016 -1600 
Q 1984 -1600 1984 -1588 
z
" transform="scale(0.015625)"/>
       <path id="Cmmi10-4b" d="M 300 0 
Q 238 0 238 84 
Q 241 100 250 139 
Q 259 178 276 201 
Q 294 225 319 225 
Q 709 225 863 269 
Q 947 297 984 441 
L 1863 3956 
Q 1875 4019 1875 4044 
Q 1875 4113 1797 4122 
Q 1678 4147 1338 4147 
Q 1275 4147 1275 4231 
Q 1297 4313 1309 4342 
Q 1322 4372 1381 4372 
L 3103 4372 
Q 3169 4372 3169 4288 
Q 3166 4272 3156 4234 
Q 3147 4197 3131 4172 
Q 3116 4147 3084 4147 
Q 2694 4147 2541 4103 
Q 2456 4072 2419 3928 
L 1900 1856 
L 4409 3794 
Q 4416 3806 4489 3879 
Q 4563 3953 4563 4025 
Q 4563 4147 4347 4147 
Q 4281 4147 4281 4231 
Q 4294 4281 4301 4309 
Q 4309 4338 4329 4355 
Q 4350 4372 4391 4372 
L 5631 4372 
Q 5666 4372 5681 4347 
Q 5697 4322 5697 4288 
Q 5694 4272 5683 4231 
Q 5672 4191 5655 4169 
Q 5638 4147 5606 4147 
Q 5138 4147 4581 3713 
Q 4578 3709 4572 3707 
Q 4566 3706 4559 3704 
Q 4553 3703 4550 3700 
L 3231 2675 
L 4191 428 
Q 4278 288 4378 256 
Q 4478 225 4684 225 
Q 4750 225 4750 141 
Q 4731 66 4712 33 
Q 4694 0 4641 0 
L 3156 0 
Q 3097 0 3097 84 
Q 3106 150 3118 187 
Q 3131 225 3181 225 
Q 3344 225 3458 258 
Q 3572 291 3572 409 
Q 3572 453 3566 475 
L 2772 2322 
L 1838 1600 
L 1544 416 
Q 1528 338 1528 325 
Q 1528 259 1606 250 
Q 1728 225 2069 225 
Q 2131 225 2131 141 
Q 2109 50 2096 25 
Q 2084 0 2022 0 
L 300 0 
z
" transform="scale(0.015625)"/>
       <path id="Cmr10-29" d="M 416 -1600 
Q 359 -1600 359 -1544 
Q 359 -1516 372 -1503 
Q 1466 -434 1466 1600 
Q 1466 3634 384 4691 
Q 359 4706 359 4744 
Q 359 4766 376 4783 
Q 394 4800 416 4800 
L 475 4800 
Q 494 4800 506 4788 
Q 966 4425 1272 3906 
Q 1578 3388 1720 2800 
Q 1863 2213 1863 1600 
Q 1863 1147 1786 708 
Q 1709 269 1542 -157 
Q 1375 -584 1119 -945 
Q 863 -1306 506 -1588 
Q 494 -1600 475 -1600 
L 416 -1600 
z
" transform="scale(0.015625)"/>
      </defs>
      <use xlink:href="#Cmmi10-48"/>
      <use xlink:href="#Cmmi10-6d" transform="translate(83.105469 -17.00625) scale(0.7)"/>
      <use xlink:href="#Cmmi10-61" transform="translate(144.560547 -17.00625) scale(0.7)"/>
      <use xlink:href="#Cmmi10-78" transform="translate(181.508789 -17.00625) scale(0.7)"/>
      <use xlink:href="#Cmr10-3d" transform="translate(245.400781 0)"/>
      <use xlink:href="#Cmr10-6c" transform="translate(340.644922 0)"/>
      <use xlink:href="#Cmr10-6e" transform="translate(368.330469 0)"/>
      <use xlink:href="#Cmr10-28" transform="translate(423.848047 0)"/>
      <use xlink:href="#Cmmi10-4b" transform="translate(462.666406 0)"/>
      <use xlink:href="#Cmr10-29" transform="translate(547.578516 0)"/>
     </g>
    </g>
   </g>
  </g>
 </g>
 <defs>
  <clipPath id="pf60329bb6d">
   <rect x="25.358209" y="14.55524" width="168.798509" height="77.378397"/>
  </clipPath>
  <clipPath id="pbee4cb7109">
   <rect x="224.278291" y="14.55524" width="168.798509" height="77.378397"/>
  </clipPath>
 </defs>
</svg>
